<svg width="97" height="33" viewBox="0 0 97 33" fill="none" xmlns="http://www.w3.org/2000/svg">
<path d="M58.1774 23.2053C52.3548 25.6595 46.0511 26.8625 40.3247 26.8625C31.8074 26.8625 23.5789 24.5527 16.8901 20.6549C16.3127 20.3181 15.8796 20.9437 16.3608 21.3767C22.5202 26.9106 30.7007 30.279 39.7954 30.279C46.2435 30.279 53.7503 28.2098 58.9473 24.4083C59.7653 23.7828 58.9954 22.8204 58.1774 23.2053Z" fill="#8C98A4"/>
<path d="M54.9055 21.04C54.4724 21.3768 54.5686 21.8099 55.0498 21.7618C56.6859 21.5693 60.4393 21.1362 61.113 22.0024C61.7867 22.8685 60.3912 26.3332 59.7656 27.9212C59.5731 28.4024 60.0062 28.5949 60.3912 28.258C63.1822 25.9482 63.904 21.04 63.2784 20.3663C62.701 19.5482 57.8408 18.9708 54.9055 21.04Z" fill="#8C98A4"/>
<path d="M65.0105 15.121C63.4225 14.2067 61.5458 13.9661 59.8135 14.0142L64.5293 7.27741C64.9623 6.69996 65.2029 6.315 65.2029 6.02628V4.29395C65.2029 3.95711 64.9623 3.81274 64.6736 3.81274H55.5789C55.2902 3.81274 55.0977 4.05335 55.0977 4.29395V6.315C55.0977 6.65184 55.3383 6.7962 55.627 6.7962H60.3909L54.9052 14.5917C54.5684 15.0729 54.5684 15.6503 54.5684 15.9872V18.0564C54.5684 18.3932 54.9052 18.6819 55.1939 18.4894C58.2736 16.8533 61.9789 16.9977 64.7699 18.4894C65.1067 18.6819 65.4435 18.297 65.4435 18.0564V15.9391C65.4435 15.6022 65.3473 15.3616 65.0105 15.121Z" fill="#8C98A4"/>
<path d="M19.2961 18.9708H22.0871C22.4239 18.9708 22.6164 18.7302 22.6164 18.4896V10.9828C22.6164 9.34675 22.5201 7.0851 24.5412 7.0851C26.5141 7.0851 26.2254 9.39487 26.2254 10.9828V18.4896C26.2254 18.7783 26.466 18.9708 26.7066 18.9708H29.4976C29.8344 18.9708 30.0269 18.7302 30.0269 18.4896V10.9828C30.0269 10.1648 29.9788 8.96179 30.3156 8.23998C30.6044 7.51818 31.278 7.0851 31.9517 7.0851C32.7698 7.0851 33.3953 7.37382 33.5397 8.2881C33.6841 8.86555 33.6359 10.3573 33.6359 10.9347V18.4415C33.6359 18.7302 33.8765 18.9227 34.1171 18.9227H36.9081C37.245 18.9227 37.4374 18.6821 37.4374 18.4415V9.49111C37.4374 7.95126 37.6299 6.21893 36.7156 5.06404C35.9457 4.0054 34.6465 3.47607 33.5397 3.47607C31.9517 3.47607 30.4119 4.34224 29.7382 6.12269C28.9683 4.34224 27.9096 3.47607 26.1773 3.47607C24.4931 3.47607 23.242 4.34224 22.5683 6.12269H22.5201V4.29412C22.5201 4.0054 22.2795 3.86104 22.0389 3.81292H19.4886C19.1517 3.81292 18.9592 4.05352 18.9592 4.29412V18.4415C18.8149 18.7302 19.0074 18.9227 19.2961 18.9708Z" fill="#8C98A4"/>
<path d="M72.9985 3.52417C69.0045 3.52417 66.791 6.98883 66.791 11.3678C66.791 15.7467 69.0045 19.2595 72.9985 19.2595C76.8482 19.2595 79.3023 15.7948 79.3023 11.5121C79.3504 7.08507 77.1369 3.52417 72.9985 3.52417ZM72.9985 16.3242C70.8331 16.3242 70.8331 12.6189 70.8331 10.8866C70.8331 9.15425 70.9775 6.41139 72.9985 6.41139C73.9128 6.41139 74.4903 6.79635 74.779 7.80688C75.1158 8.91364 75.1639 10.3573 75.1639 11.5603C75.2602 13.3888 75.1639 16.3242 72.9985 16.3242Z" fill="#8C98A4"/>
<path d="M88.7818 3.52417C86.857 3.52417 85.7984 4.48658 85.0285 6.41139H84.9803V4.24597C84.9322 4.00537 84.6916 3.86101 84.4991 3.86101H81.9488C81.66 3.86101 81.4676 4.10161 81.4194 4.29409V18.4415C81.4194 18.7302 81.66 18.9227 81.9006 18.9227H84.6435C84.9803 18.9227 85.1728 18.6821 85.1728 18.4415V10.8385C85.1728 9.87605 85.2209 9.00988 85.6059 8.14372C85.9427 7.47003 86.5683 7.03695 87.1939 7.03695C89.1187 7.03695 88.9262 9.29861 88.9262 10.8385V18.5377C88.9743 18.7783 89.1668 18.9708 89.4074 18.9708H92.1984C92.4871 18.9708 92.6796 18.7783 92.7277 18.5377V9.63545C92.7277 8.23996 92.7277 6.36327 92.0059 5.2565C91.236 3.95725 90.033 3.52417 88.7818 3.52417Z" fill="#8C98A4"/>
<path d="M47.9277 9.39468C46.3398 9.58716 44.2706 9.73152 42.7308 10.3571C40.9984 11.127 39.7954 12.6187 39.7954 14.8804C39.7954 17.7676 41.5759 19.1631 43.9338 19.1631C45.9067 19.1631 46.9653 18.73 48.5052 17.142C48.9864 17.8638 49.1789 18.2007 50.0932 18.9706C50.3338 19.0669 50.5262 19.0669 50.7668 18.9225C51.2962 18.4413 52.3548 17.5751 52.8841 17.0939C53.1247 16.9014 53.0766 16.6127 52.8841 16.3721C52.4029 15.6503 51.8736 15.121 51.8736 13.8217V9.53904C51.8736 7.71047 52.018 6.02626 50.6706 4.77513C49.6601 3.7646 47.8315 3.37964 46.4841 3.37964C43.8375 3.37964 40.9503 4.34205 40.3247 7.56611C40.2766 7.90295 40.5172 8.09543 40.7097 8.14355L43.3082 8.48039C43.5969 8.48039 43.7413 8.19167 43.7894 7.99919C44.03 6.89242 44.9443 6.3631 46.0029 6.3631C46.5804 6.3631 47.2059 6.6037 47.5909 7.0849C47.9759 7.66235 47.9277 8.43227 47.9277 9.10595V9.39468ZM47.3503 15.121C46.9172 15.8909 46.2435 16.3721 45.4255 16.3721C44.3668 16.3721 43.7413 15.5541 43.7413 14.3511C43.7413 11.9932 45.8586 11.5601 47.8796 11.5601V12.1375C47.9277 13.2924 47.9277 14.2067 47.3503 15.121Z" fill="#8C98A4"/>
<path d="M16.6497 16.3721C16.1685 15.6503 15.6392 15.121 15.6392 13.8217V9.53904C15.6392 7.71047 15.7835 6.02626 14.4362 4.77513C13.3775 3.7646 11.5971 3.37964 10.2497 3.37964C7.60309 3.37964 4.71587 4.34205 4.09031 7.56611C4.04219 7.90295 4.28279 8.09543 4.47527 8.14355L7.17001 8.43227C7.45873 8.43227 7.60309 8.14355 7.65121 7.95107C7.89181 6.8443 8.8061 6.31498 9.91287 6.31498C10.4903 6.31498 11.1159 6.55558 11.5008 7.03678C11.8858 7.61423 11.8377 8.38415 11.8377 9.05783V9.39468C10.2016 9.58716 8.13241 9.73152 6.59256 10.3571C4.86023 11.127 3.65723 12.6187 3.65723 14.8804C3.65723 17.7676 5.43768 19.1631 7.79557 19.1631C9.76851 19.1631 10.8272 18.73 12.367 17.142C12.8482 17.8638 13.0407 18.2007 13.955 18.9706C14.1956 19.0669 14.3881 19.0669 14.6287 18.9225C15.158 18.4413 16.2166 17.5751 16.7459 17.0939C16.8903 16.9014 16.8422 16.6127 16.6497 16.3721ZM11.2602 15.121C10.8272 15.8909 10.1535 16.3721 9.33542 16.3721C8.27678 16.3721 7.69933 15.5541 7.69933 14.3511C7.69933 11.9932 9.81663 11.5601 11.8377 11.5601V12.1375C11.7414 13.2924 11.7896 14.2067 11.2602 15.121Z" fill="#8C98A4"/>
</svg>
