<svg width="27" height="27" viewBox="0 0 27 27" fill="none" xmlns="http://www.w3.org/2000/svg">
<path fill-rule="evenodd" clip-rule="evenodd" d="M1.83623 13.4001C1.83623 13.1829 1.92249 12.9747 2.07604 12.8211C2.22958 12.6676 2.43784 12.5813 2.65498 12.5813H21.966L16.8128 7.42973C16.7367 7.35361 16.6763 7.26324 16.6351 7.16378C16.5939 7.06432 16.5727 6.95771 16.5727 6.85006C16.5727 6.7424 16.5939 6.6358 16.6351 6.53634C16.6763 6.43688 16.7367 6.34651 16.8128 6.27038C16.8889 6.19426 16.9793 6.13387 17.0788 6.09268C17.1782 6.05148 17.2848 6.03027 17.3925 6.03027C17.5001 6.03027 17.6067 6.05148 17.7062 6.09268C17.8057 6.13387 17.896 6.19426 17.9722 6.27038L24.5222 12.8204C24.5984 12.8964 24.6589 12.9868 24.7002 13.0863C24.7414 13.1857 24.7627 13.2924 24.7627 13.4001C24.7627 13.5078 24.7414 13.6144 24.7002 13.7139C24.6589 13.8133 24.5984 13.9037 24.5222 13.9797L17.9722 20.5297C17.896 20.6059 17.8057 20.6662 17.7062 20.7074C17.6067 20.7486 17.5001 20.7698 17.3925 20.7698C17.2848 20.7698 17.1782 20.7486 17.0788 20.7074C16.9793 20.6662 16.8889 20.6059 16.8128 20.5297C16.7367 20.4536 16.6763 20.3632 16.6351 20.2638C16.5939 20.1643 16.5727 20.0577 16.5727 19.9501C16.5727 19.8424 16.5939 19.7358 16.6351 19.6363C16.6763 19.5369 16.7367 19.4465 16.8128 19.3704L21.966 14.2188H2.65498C2.43784 14.2188 2.22958 14.1325 2.07604 13.979C1.92249 13.8255 1.83623 13.6172 1.83623 13.4001Z" fill="#495057"/>
</svg>
