<svg width="20" height="20" viewBox="0 0 20 20" fill="none" xmlns="http://www.w3.org/2000/svg">
<path d="M17.5908 9.3594V10.095C17.5898 11.8193 17.0315 13.497 15.9991 14.878C14.9667 16.259 13.5155 17.2693 11.8621 17.7581C10.2086 18.247 8.44136 18.1883 6.82398 17.5908C5.20659 16.9932 3.82568 15.8889 2.88722 14.4424C1.94875 12.9959 1.503 11.2848 1.61645 9.56434C1.7299 7.84384 2.39647 6.2061 3.51675 4.89538C4.63702 3.58466 6.15098 2.67119 7.83282 2.2912C9.51467 1.91121 11.2743 2.08506 12.8493 2.78682" fill="#3CD278" fill-opacity="0.15"/>
<path d="M17.5908 9.3594V10.095C17.5898 11.8193 17.0315 13.497 15.9991 14.878C14.9667 16.259 13.5155 17.2693 11.8621 17.7581C10.2086 18.247 8.44136 18.1883 6.82398 17.5908C5.20659 16.9932 3.82568 15.8889 2.88722 14.4424C1.94875 12.9959 1.503 11.2848 1.61645 9.56434C1.7299 7.84384 2.39647 6.2061 3.51675 4.89538C4.63702 3.58466 6.15098 2.67119 7.83282 2.2912C9.51467 1.91121 11.2743 2.08506 12.8493 2.78682" stroke="#3CD278" stroke-linecap="round" stroke-linejoin="round"/>
<path d="M17.5909 3.69833L9.59504 11.7022L7.19629 9.30341" fill="#3CD278" fill-opacity="0.15"/>
<path d="M17.5909 3.69833L9.59504 11.7022L7.19629 9.30341" stroke="#3CD278" stroke-linecap="round" stroke-linejoin="round"/>
</svg>
