<svg width="80" height="80" viewBox="0 0 80 80" fill="none" xmlns="http://www.w3.org/2000/svg">
<path d="M1.38996 60.6946C2.15761 60.6946 2.77991 60.0723 2.77991 59.3046C2.77991 58.537 2.15761 57.9147 1.38996 57.9147C0.622304 57.9147 0 58.537 0 59.3046C0 60.0723 0.622304 60.6946 1.38996 60.6946Z" fill="#3CD278" fill-opacity="0.7"/>
<path d="M1.38996 70.3473C2.15761 70.3473 2.77991 69.725 2.77991 68.9573C2.77991 68.1897 2.15761 67.5674 1.38996 67.5674C0.622304 67.5674 0 68.1897 0 68.9573C0 69.725 0.622304 70.3473 1.38996 70.3473Z" fill="#3CD278" fill-opacity="0.6"/>
<path d="M1.38996 79.9995C2.15761 79.9995 2.77991 79.3772 2.77991 78.6096C2.77991 77.8419 2.15761 77.2196 1.38996 77.2196C0.622304 77.2196 0 77.8419 0 78.6096C0 79.3772 0.622304 79.9995 1.38996 79.9995Z" fill="#3CD278" fill-opacity="0.7"/>
<path d="M11.0423 60.6948C11.81 60.6948 12.4323 60.0725 12.4323 59.3049C12.4323 58.5372 11.81 57.9149 11.0423 57.9149C10.2746 57.9149 9.65234 58.5372 9.65234 59.3049C9.65234 60.0725 10.2746 60.6948 11.0423 60.6948Z" fill="#3CD278" fill-opacity="0.6"/>
<path d="M11.0423 70.3471C11.81 70.3471 12.4323 69.7247 12.4323 68.9571C12.4323 68.1894 11.81 67.5671 11.0423 67.5671C10.2746 67.5671 9.65234 68.1894 9.65234 68.9571C9.65234 69.7247 10.2746 70.3471 11.0423 70.3471Z" fill="#3CD278" fill-opacity="0.7"/>
<path d="M11.0423 79.9998C11.81 79.9998 12.4323 79.3775 12.4323 78.6098C12.4323 77.8422 11.81 77.2198 11.0423 77.2198C10.2746 77.2198 9.65234 77.8422 9.65234 78.6098C9.65234 79.3775 10.2746 79.9998 11.0423 79.9998Z" fill="#3CD278" fill-opacity="0.6"/>
<path d="M20.6951 60.6947C21.4628 60.6947 22.0851 60.0724 22.0851 59.3048C22.0851 58.5371 21.4628 57.9148 20.6951 57.9148C19.9275 57.9148 19.3052 58.5371 19.3052 59.3048C19.3052 60.0724 19.9275 60.6947 20.6951 60.6947Z" fill="#3CD278" fill-opacity="0.7"/>
<path d="M20.6951 70.3473C21.4628 70.3473 22.0851 69.725 22.0851 68.9573C22.0851 68.1897 21.4628 67.5674 20.6951 67.5674C19.9275 67.5674 19.3052 68.1897 19.3052 68.9573C19.3052 69.725 19.9275 70.3473 20.6951 70.3473Z" fill="#3CD278" fill-opacity="0.6"/>
<path d="M20.6951 79.9995C21.4628 79.9995 22.0851 79.3772 22.0851 78.6096C22.0851 77.8419 21.4628 77.2196 20.6951 77.2196C19.9275 77.2196 19.3052 77.8419 19.3052 78.6096C19.3052 79.3772 19.9275 79.9995 20.6951 79.9995Z" fill="#3CD278" fill-opacity="0.7"/>
<path d="M30.347 60.6948C31.1146 60.6948 31.7369 60.0725 31.7369 59.3049C31.7369 58.5372 31.1146 57.9149 30.347 57.9149C29.5793 57.9149 28.957 58.5372 28.957 59.3049C28.957 60.0725 29.5793 60.6948 30.347 60.6948Z" fill="#3CD278" fill-opacity="0.6"/>
<path d="M30.3475 70.3472C31.1151 70.3472 31.7374 69.7249 31.7374 68.9572C31.7374 68.1896 31.1151 67.5673 30.3475 67.5673C29.5798 67.5673 28.9575 68.1896 28.9575 68.9572C28.9575 69.7249 29.5798 70.3472 30.3475 70.3472Z" fill="#3CD278" fill-opacity="0.6"/>
<path d="M30.3475 79.9998C31.1151 79.9998 31.7374 79.3775 31.7374 78.6098C31.7374 77.8422 31.1151 77.2198 30.3475 77.2198C29.5798 77.2198 28.9575 77.8422 28.9575 78.6098C28.9575 79.3775 29.5798 79.9998 30.3475 79.9998Z" fill="#3CD278" fill-opacity="0.7"/>
<path d="M39.9998 60.6947C40.7675 60.6947 41.3898 60.0724 41.3898 59.3048C41.3898 58.5371 40.7675 57.9148 39.9998 57.9148C39.2322 57.9148 38.6099 58.5371 38.6099 59.3048C38.6099 60.0724 39.2322 60.6947 39.9998 60.6947Z" fill="#3CD278" fill-opacity="0.6"/>
<path d="M39.9998 70.3473C40.7675 70.3473 41.3898 69.725 41.3898 68.9573C41.3898 68.1897 40.7675 67.5674 39.9998 67.5674C39.2322 67.5674 38.6099 68.1897 38.6099 68.9573C38.6099 69.725 39.2322 70.3473 39.9998 70.3473Z" fill="#3CD278" fill-opacity="0.7"/>
<path d="M39.9998 79.9996C40.7675 79.9996 41.3898 79.3773 41.3898 78.6097C41.3898 77.842 40.7675 77.2197 39.9998 77.2197C39.2322 77.2197 38.6099 77.842 38.6099 78.6097C38.6099 79.3773 39.2322 79.9996 39.9998 79.9996Z" fill="#3CD278" fill-opacity="0.6"/>
<path d="M1.38996 2.77991C2.15761 2.77991 2.77991 2.15761 2.77991 1.38996C2.77991 0.622304 2.15761 0 1.38996 0C0.622304 0 0 0.622304 0 1.38996C0 2.15761 0.622304 2.77991 1.38996 2.77991Z" fill="#3CD278" fill-opacity="0.6"/>
<path d="M1.38996 12.4325C2.15761 12.4325 2.77991 11.8102 2.77991 11.0425C2.77991 10.2749 2.15761 9.65259 1.38996 9.65259C0.622304 9.65259 0 10.2749 0 11.0425C0 11.8102 0.622304 12.4325 1.38996 12.4325Z" fill="#3CD278" fill-opacity="0.7"/>
<path d="M1.38996 22.0848C2.15761 22.0848 2.77991 21.4625 2.77991 20.6949C2.77991 19.9272 2.15761 19.3049 1.38996 19.3049C0.622304 19.3049 0 19.9272 0 20.6949C0 21.4625 0.622304 22.0848 1.38996 22.0848Z" fill="#3CD278" fill-opacity="0.7"/>
<path d="M1.38996 31.7374C2.15761 31.7374 2.77991 31.1151 2.77991 30.3475C2.77991 29.5798 2.15761 28.9575 1.38996 28.9575C0.622304 28.9575 0 29.5798 0 30.3475C0 31.1151 0.622304 31.7374 1.38996 31.7374Z" fill="#3CD278" fill-opacity="0.6"/>
<path d="M1.38996 41.3898C2.15761 41.3898 2.77991 40.7675 2.77991 39.9998C2.77991 39.2322 2.15761 38.6099 1.38996 38.6099C0.622304 38.6099 0 39.2322 0 39.9998C0 40.7675 0.622304 41.3898 1.38996 41.3898Z" fill="#3CD278" fill-opacity="0.7"/>
<path d="M1.38996 51.0424C2.15761 51.0424 2.77991 50.4201 2.77991 49.6524C2.77991 48.8848 2.15761 48.2625 1.38996 48.2625C0.622304 48.2625 0 48.8848 0 49.6524C0 50.4201 0.622304 51.0424 1.38996 51.0424Z" fill="#3CD278" fill-opacity="0.6"/>
<path d="M11.0428 2.77979C11.8104 2.77979 12.4327 2.15749 12.4327 1.38983C12.4327 0.622182 11.8104 -0.00012207 11.0428 -0.00012207C10.2751 -0.00012207 9.65283 0.622182 9.65283 1.38983C9.65283 2.15749 10.2751 2.77979 11.0428 2.77979Z" fill="#3CD278" fill-opacity="0.6"/>
<path d="M11.0423 12.4324C11.81 12.4324 12.4323 11.8101 12.4323 11.0424C12.4323 10.2748 11.81 9.65247 11.0423 9.65247C10.2746 9.65247 9.65234 10.2748 9.65234 11.0424C9.65234 11.8101 10.2746 12.4324 11.0423 12.4324Z" fill="#3CD278" fill-opacity="0.6"/>
<path d="M11.0423 22.085C11.81 22.085 12.4323 21.4627 12.4323 20.695C12.4323 19.9274 11.81 19.3051 11.0423 19.3051C10.2746 19.3051 9.65234 19.9274 9.65234 20.695C9.65234 21.4627 10.2746 22.085 11.0423 22.085Z" fill="#3CD278" fill-opacity="0.6"/>
<path d="M11.0423 31.7373C11.81 31.7373 12.4323 31.115 12.4323 30.3474C12.4323 29.5797 11.81 28.9574 11.0423 28.9574C10.2746 28.9574 9.65234 29.5797 9.65234 30.3474C9.65234 31.115 10.2746 31.7373 11.0423 31.7373Z" fill="#3CD278" fill-opacity="0.7"/>
<path d="M11.0423 41.3899C11.81 41.3899 12.4323 40.7676 12.4323 39.9999C12.4323 39.2323 11.81 38.61 11.0423 38.61C10.2746 38.61 9.65234 39.2323 9.65234 39.9999C9.65234 40.7676 10.2746 41.3899 11.0423 41.3899Z" fill="#3CD278" fill-opacity="0.6"/>
<path d="M11.0423 51.0422C11.81 51.0422 12.4323 50.4199 12.4323 49.6523C12.4323 48.8846 11.81 48.2623 11.0423 48.2623C10.2746 48.2623 9.65234 48.8846 9.65234 49.6523C9.65234 50.4199 10.2746 51.0422 11.0423 51.0422Z" fill="#3CD278" fill-opacity="0.7"/>
<path d="M20.6951 2.77991C21.4628 2.77991 22.0851 2.15761 22.0851 1.38996C22.0851 0.622304 21.4628 0 20.6951 0C19.9275 0 19.3052 0.622304 19.3052 1.38996C19.3052 2.15761 19.9275 2.77991 20.6951 2.77991Z" fill="#3CD278" fill-opacity="0.6"/>
<path d="M20.6951 12.4323C21.4628 12.4323 22.0851 11.81 22.0851 11.0423C22.0851 10.2746 21.4628 9.65234 20.6951 9.65234C19.9275 9.65234 19.3052 10.2746 19.3052 11.0423C19.3052 11.81 19.9275 12.4323 20.6951 12.4323Z" fill="#3CD278" fill-opacity="0.6"/>
<path d="M20.6951 22.0848C21.4628 22.0848 22.0851 21.4625 22.0851 20.6949C22.0851 19.9272 21.4628 19.3049 20.6951 19.3049C19.9275 19.3049 19.3052 19.9272 19.3052 20.6949C19.3052 21.4625 19.9275 22.0848 20.6951 22.0848Z" fill="#3CD278" fill-opacity="0.6"/>
<path d="M20.6946 31.7374C21.4623 31.7374 22.0846 31.1151 22.0846 30.3475C22.0846 29.5798 21.4623 28.9575 20.6946 28.9575C19.927 28.9575 19.3047 29.5798 19.3047 30.3475C19.3047 31.1151 19.927 31.7374 20.6946 31.7374Z" fill="#3CD278" fill-opacity="0.6"/>
<path d="M20.6951 41.3898C21.4628 41.3898 22.0851 40.7675 22.0851 39.9998C22.0851 39.2322 21.4628 38.6099 20.6951 38.6099C19.9275 38.6099 19.3052 39.2322 19.3052 39.9998C19.3052 40.7675 19.9275 41.3898 20.6951 41.3898Z" fill="#3CD278" fill-opacity="0.7"/>
<path d="M20.6946 51.0424C21.4623 51.0424 22.0846 50.4201 22.0846 49.6524C22.0846 48.8848 21.4623 48.2625 20.6946 48.2625C19.927 48.2625 19.3047 48.8848 19.3047 49.6524C19.3047 50.4201 19.927 51.0424 20.6946 51.0424Z" fill="#3CD278" fill-opacity="0.6"/>
<path d="M30.3475 2.77979C31.1151 2.77979 31.7374 2.15749 31.7374 1.38983C31.7374 0.622182 31.1151 -0.00012207 30.3475 -0.00012207C29.5798 -0.00012207 28.9575 0.622182 28.9575 1.38983C28.9575 2.15749 29.5798 2.77979 30.3475 2.77979Z" fill="#3CD278" fill-opacity="0.6"/>
<path d="M30.3475 12.4324C31.1151 12.4324 31.7374 11.8101 31.7374 11.0424C31.7374 10.2748 31.1151 9.65247 30.3475 9.65247C29.5798 9.65247 28.9575 10.2748 28.9575 11.0424C28.9575 11.8101 29.5798 12.4324 30.3475 12.4324Z" fill="#3CD278" fill-opacity="0.6"/>
<path d="M30.3475 22.0847C31.1151 22.0847 31.7374 21.4624 31.7374 20.6948C31.7374 19.9271 31.1151 19.3048 30.3475 19.3048C29.5798 19.3048 28.9575 19.9271 28.9575 20.6948C28.9575 21.4624 29.5798 22.0847 30.3475 22.0847Z" fill="#3CD278" fill-opacity="0.6"/>
<path d="M30.3475 31.7373C31.1151 31.7373 31.7374 31.115 31.7374 30.3474C31.7374 29.5797 31.1151 28.9574 30.3475 28.9574C29.5798 28.9574 28.9575 29.5797 28.9575 30.3474C28.9575 31.115 29.5798 31.7373 30.3475 31.7373Z" fill="#3CD278" fill-opacity="0.6"/>
<path d="M30.347 41.39C31.1146 41.39 31.7369 40.7677 31.7369 40.0001C31.7369 39.2324 31.1146 38.6101 30.347 38.6101C29.5793 38.6101 28.957 39.2324 28.957 40.0001C28.957 40.7677 29.5793 41.39 30.347 41.39Z" fill="#3CD278" fill-opacity="0.7"/>
<path d="M30.3475 51.0422C31.1151 51.0422 31.7374 50.4199 31.7374 49.6523C31.7374 48.8846 31.1151 48.2623 30.3475 48.2623C29.5798 48.2623 28.9575 48.8846 28.9575 49.6523C28.9575 50.4199 29.5798 51.0422 30.3475 51.0422Z" fill="#3CD278" fill-opacity="0.6"/>
<path d="M39.9998 2.77991C40.7675 2.77991 41.3898 2.15761 41.3898 1.38996C41.3898 0.622304 40.7675 0 39.9998 0C39.2322 0 38.6099 0.622304 38.6099 1.38996C38.6099 2.15761 39.2322 2.77991 39.9998 2.77991Z" fill="#3CD278" fill-opacity="0.7"/>
<path d="M39.9998 12.4323C40.7675 12.4323 41.3898 11.81 41.3898 11.0423C41.3898 10.2746 40.7675 9.65234 39.9998 9.65234C39.2322 9.65234 38.6099 10.2746 38.6099 11.0423C38.6099 11.81 39.2322 12.4323 39.9998 12.4323Z" fill="#3CD278" fill-opacity="0.6"/>
<path d="M39.9998 22.0848C40.7675 22.0848 41.3898 21.4625 41.3898 20.6949C41.3898 19.9272 40.7675 19.3049 39.9998 19.3049C39.2322 19.3049 38.6099 19.9272 38.6099 20.6949C38.6099 21.4625 39.2322 22.0848 39.9998 22.0848Z" fill="#3CD278" fill-opacity="0.6"/>
<path d="M39.9998 31.7372C40.7675 31.7372 41.3898 31.1149 41.3898 30.3472C41.3898 29.5796 40.7675 28.9573 39.9998 28.9573C39.2322 28.9573 38.6099 29.5796 38.6099 30.3472C38.6099 31.1149 39.2322 31.7372 39.9998 31.7372Z" fill="#3CD278" fill-opacity="0.7"/>
<path d="M39.9998 41.3898C40.7675 41.3898 41.3898 40.7675 41.3898 39.9998C41.3898 39.2322 40.7675 38.6099 39.9998 38.6099C39.2322 38.6099 38.6099 39.2322 38.6099 39.9998C38.6099 40.7675 39.2322 41.3898 39.9998 41.3898Z" fill="#3CD278" fill-opacity="0.6"/>
<path d="M39.9998 51.0425C40.7675 51.0425 41.3898 50.4202 41.3898 49.6525C41.3898 48.8849 40.7675 48.2626 39.9998 48.2626C39.2322 48.2626 38.6099 48.8849 38.6099 49.6525C38.6099 50.4202 39.2322 51.0425 39.9998 51.0425Z" fill="#3CD278" fill-opacity="0.6"/>
<path d="M49.6522 2.77979C50.4198 2.77979 51.0421 2.15749 51.0421 1.38983C51.0421 0.622182 50.4198 -0.00012207 49.6522 -0.00012207C48.8845 -0.00012207 48.2622 0.622182 48.2622 1.38983C48.2622 2.15749 48.8845 2.77979 49.6522 2.77979Z" fill="#3CD278" fill-opacity="0.6"/>
<path d="M49.6522 12.4324C50.4198 12.4324 51.0421 11.8101 51.0421 11.0424C51.0421 10.2748 50.4198 9.65247 49.6522 9.65247C48.8845 9.65247 48.2622 10.2748 48.2622 11.0424C48.2622 11.8101 48.8845 12.4324 49.6522 12.4324Z" fill="#3CD278" fill-opacity="0.6"/>
<path d="M49.6527 22.0847C50.4203 22.0847 51.0426 21.4624 51.0426 20.6948C51.0426 19.9271 50.4203 19.3048 49.6527 19.3048C48.885 19.3048 48.2627 19.9271 48.2627 20.6948C48.2627 21.4624 48.885 22.0847 49.6527 22.0847Z" fill="#3CD278" fill-opacity="0.6"/>
<path d="M49.6522 31.7373C50.4198 31.7373 51.0421 31.115 51.0421 30.3474C51.0421 29.5797 50.4198 28.9574 49.6522 28.9574C48.8845 28.9574 48.2622 29.5797 48.2622 30.3474C48.2622 31.115 48.8845 31.7373 49.6522 31.7373Z" fill="#3CD278" fill-opacity="0.7"/>
<path d="M49.6527 41.3897C50.4203 41.3897 51.0426 40.7673 51.0426 39.9997C51.0426 39.232 50.4203 38.6097 49.6527 38.6097C48.885 38.6097 48.2627 39.232 48.2627 39.9997C48.2627 40.7673 48.885 41.3897 49.6527 41.3897Z" fill="#3CD278" fill-opacity="0.6"/>
<path d="M49.6522 51.0422C50.4198 51.0422 51.0421 50.4199 51.0421 49.6523C51.0421 48.8846 50.4198 48.2623 49.6522 48.2623C48.8845 48.2623 48.2622 48.8846 48.2622 49.6523C48.2622 50.4199 48.8845 51.0422 49.6522 51.0422Z" fill="#3CD278" fill-opacity="0.7"/>
<path d="M49.6522 60.695C50.4198 60.695 51.0421 60.0726 51.0421 59.305C51.0421 58.5373 50.4198 57.915 49.6522 57.915C48.8845 57.915 48.2622 58.5373 48.2622 59.305C48.2622 60.0726 48.8845 60.695 49.6522 60.695Z" fill="#3CD278" fill-opacity="0.7"/>
<path d="M49.6522 70.3472C50.4198 70.3472 51.0421 69.7249 51.0421 68.9572C51.0421 68.1896 50.4198 67.5673 49.6522 67.5673C48.8845 67.5673 48.2622 68.1896 48.2622 68.9572C48.2622 69.7249 48.8845 70.3472 49.6522 70.3472Z" fill="#3CD278" fill-opacity="0.6"/>
<path d="M49.6522 79.9999C50.4198 79.9999 51.0421 79.3776 51.0421 78.6099C51.0421 77.8423 50.4198 77.22 49.6522 77.22C48.8845 77.22 48.2622 77.8423 48.2622 78.6099C48.2622 79.3776 48.8845 79.9999 49.6522 79.9999Z" fill="#3CD278" fill-opacity="0.7"/>
<path d="M59.305 2.78003C60.0726 2.78003 60.695 2.15773 60.695 1.39008C60.695 0.622427 60.0726 0.00012207 59.305 0.00012207C58.5373 0.00012207 57.915 0.622427 57.915 1.39008C57.915 2.15773 58.5373 2.78003 59.305 2.78003Z" fill="#3CD278" fill-opacity="0.6"/>
<path d="M59.305 12.4323C60.0726 12.4323 60.695 11.81 60.695 11.0423C60.695 10.2746 60.0726 9.65234 59.305 9.65234C58.5373 9.65234 57.915 10.2746 57.915 11.0423C57.915 11.81 58.5373 12.4323 59.305 12.4323Z" fill="#3CD278" fill-opacity="0.6"/>
<path d="M59.305 22.0848C60.0726 22.0848 60.695 21.4625 60.695 20.6949C60.695 19.9272 60.0726 19.3049 59.305 19.3049C58.5373 19.3049 57.915 19.9272 57.915 20.6949C57.915 21.4625 58.5373 22.0848 59.305 22.0848Z" fill="#3CD278" fill-opacity="0.7"/>
<path d="M59.305 31.7372C60.0726 31.7372 60.695 31.1149 60.695 30.3472C60.695 29.5796 60.0726 28.9573 59.305 28.9573C58.5373 28.9573 57.915 29.5796 57.915 30.3472C57.915 31.1149 58.5373 31.7372 59.305 31.7372Z" fill="#3CD278" fill-opacity="0.7"/>
<path d="M59.305 41.3898C60.0726 41.3898 60.695 40.7675 60.695 39.9998C60.695 39.2322 60.0726 38.6099 59.305 38.6099C58.5373 38.6099 57.915 39.2322 57.915 39.9998C57.915 40.7675 58.5373 41.3898 59.305 41.3898Z" fill="#3CD278" fill-opacity="0.6"/>
<path d="M59.305 51.0421C60.0726 51.0421 60.695 50.4198 60.695 49.6522C60.695 48.8845 60.0726 48.2622 59.305 48.2622C58.5373 48.2622 57.915 48.8845 57.915 49.6522C57.915 50.4198 58.5373 51.0421 59.305 51.0421Z" fill="#3CD278" fill-opacity="0.6"/>
<path d="M59.305 60.6947C60.0726 60.6947 60.695 60.0724 60.695 59.3048C60.695 58.5371 60.0726 57.9148 59.305 57.9148C58.5373 57.9148 57.915 58.5371 57.915 59.3048C57.915 60.0724 58.5373 60.6947 59.305 60.6947Z" fill="#3CD278" fill-opacity="0.7"/>
<path d="M59.3045 70.3474C60.0722 70.3474 60.6945 69.7251 60.6945 68.9575C60.6945 68.1898 60.0722 67.5675 59.3045 67.5675C58.5369 67.5675 57.9146 68.1898 57.9146 68.9575C57.9146 69.7251 58.5369 70.3474 59.3045 70.3474Z" fill="#3CD278" fill-opacity="0.7"/>
<path d="M59.305 79.9996C60.0726 79.9996 60.695 79.3773 60.695 78.6097C60.695 77.842 60.0726 77.2197 59.305 77.2197C58.5373 77.2197 57.915 77.842 57.915 78.6097C57.915 79.3773 58.5373 79.9996 59.305 79.9996Z" fill="#3CD278" fill-opacity="0.7"/>
<path d="M68.9573 2.77991C69.725 2.77991 70.3473 2.15761 70.3473 1.38996C70.3473 0.622304 69.725 0 68.9573 0C68.1897 0 67.5674 0.622304 67.5674 1.38996C67.5674 2.15761 68.1897 2.77991 68.9573 2.77991Z" fill="#3CD278" fill-opacity="0.7"/>
<path d="M68.9573 12.4325C69.725 12.4325 70.3473 11.8102 70.3473 11.0425C70.3473 10.2749 69.725 9.65259 68.9573 9.65259C68.1897 9.65259 67.5674 10.2749 67.5674 11.0425C67.5674 11.8102 68.1897 12.4325 68.9573 12.4325Z" fill="#3CD278" fill-opacity="0.7"/>
<path d="M68.9573 22.0847C69.725 22.0847 70.3473 21.4624 70.3473 20.6948C70.3473 19.9271 69.725 19.3048 68.9573 19.3048C68.1897 19.3048 67.5674 19.9271 67.5674 20.6948C67.5674 21.4624 68.1897 22.0847 68.9573 22.0847Z" fill="#3CD278" fill-opacity="0.7"/>
<path d="M68.9573 31.7373C69.725 31.7373 70.3473 31.115 70.3473 30.3474C70.3473 29.5797 69.725 28.9574 68.9573 28.9574C68.1897 28.9574 67.5674 29.5797 67.5674 30.3474C67.5674 31.115 68.1897 31.7373 68.9573 31.7373Z" fill="#3CD278" fill-opacity="0.7"/>
<path d="M68.9573 41.3897C69.725 41.3897 70.3473 40.7673 70.3473 39.9997C70.3473 39.232 69.725 38.6097 68.9573 38.6097C68.1897 38.6097 67.5674 39.232 67.5674 39.9997C67.5674 40.7673 68.1897 41.3897 68.9573 41.3897Z" fill="#3CD278" fill-opacity="0.6"/>
<path d="M68.9573 51.0422C69.725 51.0422 70.3473 50.4199 70.3473 49.6523C70.3473 48.8846 69.725 48.2623 68.9573 48.2623C68.1897 48.2623 67.5674 48.8846 67.5674 49.6523C67.5674 50.4199 68.1897 51.0422 68.9573 51.0422Z" fill="#3CD278" fill-opacity="0.6"/>
<path d="M68.9573 60.6946C69.725 60.6946 70.3473 60.0723 70.3473 59.3046C70.3473 58.537 69.725 57.9147 68.9573 57.9147C68.1897 57.9147 67.5674 58.537 67.5674 59.3046C67.5674 60.0723 68.1897 60.6946 68.9573 60.6946Z" fill="#3CD278" fill-opacity="0.7"/>
<path d="M68.9573 70.3472C69.725 70.3472 70.3473 69.7249 70.3473 68.9572C70.3473 68.1896 69.725 67.5673 68.9573 67.5673C68.1897 67.5673 67.5674 68.1896 67.5674 68.9572C67.5674 69.7249 68.1897 70.3472 68.9573 70.3472Z" fill="#3CD278" fill-opacity="0.6"/>
<path d="M68.9573 79.9999C69.725 79.9999 70.3473 79.3776 70.3473 78.6099C70.3473 77.8423 69.725 77.22 68.9573 77.22C68.1897 77.22 67.5674 77.8423 67.5674 78.6099C67.5674 79.3776 68.1897 79.9999 68.9573 79.9999Z" fill="#3CD278" fill-opacity="0.6"/>
<path d="M78.39 79.9999C79.1576 79.9999 79.7799 79.3776 79.7799 78.6099C79.7799 77.8423 79.1576 77.22 78.39 77.22C77.6223 77.22 77 77.8423 77 78.6099C77 79.3776 77.6223 79.9999 78.39 79.9999Z" fill="#3CD278" fill-opacity="0.6"/>
<path d="M78.6097 2.78003C79.3773 2.78003 79.9996 2.15773 79.9996 1.39008C79.9996 0.622427 79.3773 0.00012207 78.6097 0.00012207C77.842 0.00012207 77.2197 0.622427 77.2197 1.39008C77.2197 2.15773 77.842 2.78003 78.6097 2.78003Z" fill="#3CD278" fill-opacity="0.7"/>
<path d="M78.6097 12.4324C79.3773 12.4324 79.9996 11.8101 79.9996 11.0424C79.9996 10.2748 79.3773 9.65247 78.6097 9.65247C77.842 9.65247 77.2197 10.2748 77.2197 11.0424C77.2197 11.8101 77.842 12.4324 78.6097 12.4324Z" fill="#3CD278" fill-opacity="0.6"/>
<path d="M78.6097 22.085C79.3773 22.085 79.9996 21.4627 79.9996 20.695C79.9996 19.9274 79.3773 19.3051 78.6097 19.3051C77.842 19.3051 77.2197 19.9274 77.2197 20.695C77.2197 21.4627 77.842 22.085 78.6097 22.085Z" fill="#3CD278" fill-opacity="0.7"/>
<path d="M78.6097 31.7372C79.3773 31.7372 79.9996 31.1149 79.9996 30.3472C79.9996 29.5796 79.3773 28.9573 78.6097 28.9573C77.842 28.9573 77.2197 29.5796 77.2197 30.3472C77.2197 31.1149 77.842 31.7372 78.6097 31.7372Z" fill="#3CD278" fill-opacity="0.7"/>
<path d="M78.6097 41.3899C79.3773 41.3899 79.9996 40.7676 79.9996 39.9999C79.9996 39.2323 79.3773 38.61 78.6097 38.61C77.842 38.61 77.2197 39.2323 77.2197 39.9999C77.2197 40.7676 77.842 41.3899 78.6097 41.3899Z" fill="#3CD278" fill-opacity="0.6"/>
<path d="M78.6097 51.0421C79.3773 51.0421 79.9996 50.4198 79.9996 49.6522C79.9996 48.8845 79.3773 48.2622 78.6097 48.2622C77.842 48.2622 77.2197 48.8845 77.2197 49.6522C77.2197 50.4198 77.842 51.0421 78.6097 51.0421Z" fill="#3CD278" fill-opacity="0.7"/>
<path d="M78.6097 60.6947C79.3773 60.6947 79.9996 60.0724 79.9996 59.3048C79.9996 58.5371 79.3773 57.9148 78.6097 57.9148C77.842 57.9148 77.2197 58.5371 77.2197 59.3048C77.2197 60.0724 77.842 60.6947 78.6097 60.6947Z" fill="#3CD278" fill-opacity="0.6"/>
<path d="M78.6097 70.3471C79.3773 70.3471 79.9996 69.7247 79.9996 68.9571C79.9996 68.1894 79.3773 67.5671 78.6097 67.5671C77.842 67.5671 77.2197 68.1894 77.2197 68.9571C77.2197 69.7247 77.842 70.3471 78.6097 70.3471Z" fill="#3CD278" fill-opacity="0.7"/>
</svg>
