<svg width="81" height="80" viewBox="0 0 81 80" fill="none" xmlns="http://www.w3.org/2000/svg">
<path d="M1.2549 2.5098C1.94796 2.5098 2.5098 1.94796 2.5098 1.2549C2.5098 0.561838 1.94796 0 1.2549 0C0.561839 0 0 0.561838 0 1.2549C0 1.94796 0.561839 2.5098 1.2549 2.5098Z" fill="#0055FF" fill-opacity="0.6"/>
<path d="M1.2549 11.1198C1.94796 11.1198 2.5098 10.5579 2.5098 9.86489C2.5098 9.17182 1.94796 8.60999 1.2549 8.60999C0.561839 8.60999 0 9.17182 0 9.86489C0 10.5579 0.561839 11.1198 1.2549 11.1198Z" fill="#0055FF"/>
<path d="M1.2549 19.7299C1.94796 19.7299 2.5098 19.1681 2.5098 18.475C2.5098 17.7819 1.94796 17.2201 1.2549 17.2201C0.561839 17.2201 0 17.7819 0 18.475C0 19.1681 0.561839 19.7299 1.2549 19.7299Z" fill="#0055FF" fill-opacity="0.6"/>
<path d="M1.2549 28.3399C1.94796 28.3399 2.5098 27.778 2.5098 27.085C2.5098 26.3919 1.94796 25.8301 1.2549 25.8301C0.561839 25.8301 0 26.3919 0 27.085C0 27.778 0.561839 28.3399 1.2549 28.3399Z" fill="#0055FF"/>
<path d="M1.2549 36.9499C1.94796 36.9499 2.5098 36.388 2.5098 35.695C2.5098 35.0019 1.94796 34.4401 1.2549 34.4401C0.561839 34.4401 0 35.0019 0 35.695C0 36.388 0.561839 36.9499 1.2549 36.9499Z" fill="#0055FF" fill-opacity="0.6"/>
<path d="M1.2549 45.5599C1.94796 45.5599 2.5098 44.998 2.5098 44.305C2.5098 43.6119 1.94796 43.05 1.2549 43.05C0.561839 43.05 0 43.6119 0 44.305C0 44.998 0.561839 45.5599 1.2549 45.5599Z" fill="#0055FF"/>
<path d="M1.2549 54.17C1.94796 54.17 2.5098 53.6081 2.5098 52.9151C2.5098 52.222 1.94796 51.6602 1.2549 51.6602C0.561839 51.6602 0 52.222 0 52.9151C0 53.6081 0.561839 54.17 1.2549 54.17Z" fill="#0055FF" fill-opacity="0.6"/>
<path d="M1.2549 62.7799C1.94796 62.7799 2.5098 62.2181 2.5098 61.525C2.5098 60.832 1.94796 60.2701 1.2549 60.2701C0.561839 60.2701 0 60.832 0 61.525C0 62.2181 0.561839 62.7799 1.2549 62.7799Z" fill="#0055FF"/>
<path d="M1.2549 71.3899C1.94796 71.3899 2.5098 70.8281 2.5098 70.135C2.5098 69.442 1.94796 68.8801 1.2549 68.8801C0.561839 68.8801 0 69.442 0 70.135C0 70.8281 0.561839 71.3899 1.2549 71.3899Z" fill="#0055FF" fill-opacity="0.6"/>
<path d="M1.2549 80C1.94796 80 2.5098 79.4382 2.5098 78.7451C2.5098 78.0521 1.94796 77.4902 1.2549 77.4902C0.561839 77.4902 0 78.0521 0 78.7451C0 79.4382 0.561839 80 1.2549 80Z" fill="#0055FF"/>
<path d="M9.96926 2.5098C10.6623 2.5098 11.2242 1.94796 11.2242 1.2549C11.2242 0.561838 10.6623 0 9.96926 0C9.27619 0 8.71436 0.561838 8.71436 1.2549C8.71436 1.94796 9.27619 2.5098 9.96926 2.5098Z" fill="#0055FF" fill-opacity="0.6"/>
<path d="M9.96926 11.1198C10.6623 11.1198 11.2242 10.5579 11.2242 9.86489C11.2242 9.17182 10.6623 8.60999 9.96926 8.60999C9.27619 8.60999 8.71436 9.17182 8.71436 9.86489C8.71436 10.5579 9.27619 11.1198 9.96926 11.1198Z" fill="#0055FF"/>
<path d="M9.96926 19.7299C10.6623 19.7299 11.2242 19.1681 11.2242 18.475C11.2242 17.7819 10.6623 17.2201 9.96926 17.2201C9.27619 17.2201 8.71436 17.7819 8.71436 18.475C8.71436 19.1681 9.27619 19.7299 9.96926 19.7299Z" fill="#0055FF" fill-opacity="0.6"/>
<path d="M9.96926 28.3399C10.6623 28.3399 11.2242 27.778 11.2242 27.085C11.2242 26.3919 10.6623 25.8301 9.96926 25.8301C9.27619 25.8301 8.71436 26.3919 8.71436 27.085C8.71436 27.778 9.27619 28.3399 9.96926 28.3399Z" fill="#0055FF"/>
<path d="M9.96926 36.9499C10.6623 36.9499 11.2242 36.388 11.2242 35.695C11.2242 35.0019 10.6623 34.4401 9.96926 34.4401C9.27619 34.4401 8.71436 35.0019 8.71436 35.695C8.71436 36.388 9.27619 36.9499 9.96926 36.9499Z" fill="#0055FF" fill-opacity="0.6"/>
<path d="M9.96926 45.5599C10.6623 45.5599 11.2242 44.998 11.2242 44.305C11.2242 43.6119 10.6623 43.05 9.96926 43.05C9.27619 43.05 8.71436 43.6119 8.71436 44.305C8.71436 44.998 9.27619 45.5599 9.96926 45.5599Z" fill="#0055FF"/>
<path d="M9.96926 54.17C10.6623 54.17 11.2242 53.6081 11.2242 52.9151C11.2242 52.222 10.6623 51.6602 9.96926 51.6602C9.27619 51.6602 8.71436 52.222 8.71436 52.9151C8.71436 53.6081 9.27619 54.17 9.96926 54.17Z" fill="#0055FF" fill-opacity="0.6"/>
<path d="M9.96926 62.7799C10.6623 62.7799 11.2242 62.2181 11.2242 61.525C11.2242 60.832 10.6623 60.2701 9.96926 60.2701C9.27619 60.2701 8.71436 60.832 8.71436 61.525C8.71436 62.2181 9.27619 62.7799 9.96926 62.7799Z" fill="#0055FF"/>
<path d="M9.96926 71.3899C10.6623 71.3899 11.2242 70.8281 11.2242 70.135C11.2242 69.442 10.6623 68.8801 9.96926 68.8801C9.27619 68.8801 8.71436 69.442 8.71436 70.135C8.71436 70.8281 9.27619 71.3899 9.96926 71.3899Z" fill="#0055FF" fill-opacity="0.6"/>
<path d="M9.96926 80C10.6623 80 11.2242 79.4382 11.2242 78.7451C11.2242 78.0521 10.6623 77.4902 9.96926 77.4902C9.27619 77.4902 8.71436 78.0521 8.71436 78.7451C8.71436 79.4382 9.27619 80 9.96926 80Z" fill="#0055FF"/>
<path d="M18.6841 2.5098C19.3772 2.5098 19.939 1.94796 19.939 1.2549C19.939 0.561838 19.3772 0 18.6841 0C17.991 0 17.4292 0.561838 17.4292 1.2549C17.4292 1.94796 17.991 2.5098 18.6841 2.5098Z" fill="#0055FF" fill-opacity="0.6"/>
<path d="M18.6841 11.1198C19.3772 11.1198 19.939 10.5579 19.939 9.86489C19.939 9.17182 19.3772 8.60999 18.6841 8.60999C17.991 8.60999 17.4292 9.17182 17.4292 9.86489C17.4292 10.5579 17.991 11.1198 18.6841 11.1198Z" fill="#0055FF"/>
<path d="M18.6841 19.7299C19.3772 19.7299 19.939 19.1681 19.939 18.475C19.939 17.7819 19.3772 17.2201 18.6841 17.2201C17.991 17.2201 17.4292 17.7819 17.4292 18.475C17.4292 19.1681 17.991 19.7299 18.6841 19.7299Z" fill="#0055FF" fill-opacity="0.6"/>
<path d="M18.6841 28.3399C19.3772 28.3399 19.939 27.778 19.939 27.085C19.939 26.3919 19.3772 25.8301 18.6841 25.8301C17.991 25.8301 17.4292 26.3919 17.4292 27.085C17.4292 27.778 17.991 28.3399 18.6841 28.3399Z" fill="#0055FF"/>
<path d="M18.6841 36.9499C19.3772 36.9499 19.939 36.388 19.939 35.695C19.939 35.0019 19.3772 34.4401 18.6841 34.4401C17.991 34.4401 17.4292 35.0019 17.4292 35.695C17.4292 36.388 17.991 36.9499 18.6841 36.9499Z" fill="#0055FF" fill-opacity="0.6"/>
<path d="M18.6841 45.5599C19.3772 45.5599 19.939 44.998 19.939 44.305C19.939 43.6119 19.3772 43.05 18.6841 43.05C17.991 43.05 17.4292 43.6119 17.4292 44.305C17.4292 44.998 17.991 45.5599 18.6841 45.5599Z" fill="#0055FF"/>
<path d="M18.6841 54.17C19.3772 54.17 19.939 53.6081 19.939 52.9151C19.939 52.222 19.3772 51.6602 18.6841 51.6602C17.991 51.6602 17.4292 52.222 17.4292 52.9151C17.4292 53.6081 17.991 54.17 18.6841 54.17Z" fill="#0055FF" fill-opacity="0.6"/>
<path d="M18.6841 62.7799C19.3772 62.7799 19.939 62.2181 19.939 61.525C19.939 60.832 19.3772 60.2701 18.6841 60.2701C17.991 60.2701 17.4292 60.832 17.4292 61.525C17.4292 62.2181 17.991 62.7799 18.6841 62.7799Z" fill="#0055FF"/>
<path d="M18.6841 71.3899C19.3772 71.3899 19.939 70.8281 19.939 70.135C19.939 69.442 19.3772 68.8801 18.6841 68.8801C17.991 68.8801 17.4292 69.442 17.4292 70.135C17.4292 70.8281 17.991 71.3899 18.6841 71.3899Z" fill="#0055FF" fill-opacity="0.6"/>
<path d="M18.6841 80C19.3772 80 19.939 79.4382 19.939 78.7451C19.939 78.0521 19.3772 77.4902 18.6841 77.4902C17.991 77.4902 17.4292 78.0521 17.4292 78.7451C17.4292 79.4382 17.991 80 18.6841 80Z" fill="#0055FF"/>
<path d="M27.3985 2.5098C28.0915 2.5098 28.6534 1.94796 28.6534 1.2549C28.6534 0.561838 28.0915 0 27.3985 0C26.7054 0 26.1436 0.561838 26.1436 1.2549C26.1436 1.94796 26.7054 2.5098 27.3985 2.5098Z" fill="#0055FF" fill-opacity="0.6"/>
<path d="M27.3985 11.1198C28.0915 11.1198 28.6534 10.5579 28.6534 9.86489C28.6534 9.17182 28.0915 8.60999 27.3985 8.60999C26.7054 8.60999 26.1436 9.17182 26.1436 9.86489C26.1436 10.5579 26.7054 11.1198 27.3985 11.1198Z" fill="#0055FF"/>
<path d="M27.3985 19.7299C28.0915 19.7299 28.6534 19.1681 28.6534 18.475C28.6534 17.7819 28.0915 17.2201 27.3985 17.2201C26.7054 17.2201 26.1436 17.7819 26.1436 18.475C26.1436 19.1681 26.7054 19.7299 27.3985 19.7299Z" fill="#0055FF" fill-opacity="0.6"/>
<path d="M27.3985 28.3399C28.0915 28.3399 28.6534 27.778 28.6534 27.085C28.6534 26.3919 28.0915 25.8301 27.3985 25.8301C26.7054 25.8301 26.1436 26.3919 26.1436 27.085C26.1436 27.778 26.7054 28.3399 27.3985 28.3399Z" fill="#0055FF"/>
<path d="M27.3985 36.9499C28.0915 36.9499 28.6534 36.388 28.6534 35.695C28.6534 35.0019 28.0915 34.4401 27.3985 34.4401C26.7054 34.4401 26.1436 35.0019 26.1436 35.695C26.1436 36.388 26.7054 36.9499 27.3985 36.9499Z" fill="#0055FF" fill-opacity="0.6"/>
<path d="M27.3985 45.5599C28.0915 45.5599 28.6534 44.998 28.6534 44.305C28.6534 43.6119 28.0915 43.05 27.3985 43.05C26.7054 43.05 26.1436 43.6119 26.1436 44.305C26.1436 44.998 26.7054 45.5599 27.3985 45.5599Z" fill="#0055FF"/>
<path d="M27.3985 54.17C28.0915 54.17 28.6534 53.6081 28.6534 52.9151C28.6534 52.222 28.0915 51.6602 27.3985 51.6602C26.7054 51.6602 26.1436 52.222 26.1436 52.9151C26.1436 53.6081 26.7054 54.17 27.3985 54.17Z" fill="#0055FF" fill-opacity="0.6"/>
<path d="M27.3985 62.7799C28.0915 62.7799 28.6534 62.2181 28.6534 61.525C28.6534 60.832 28.0915 60.2701 27.3985 60.2701C26.7054 60.2701 26.1436 60.832 26.1436 61.525C26.1436 62.2181 26.7054 62.7799 27.3985 62.7799Z" fill="#0055FF"/>
<path d="M27.3985 71.3899C28.0915 71.3899 28.6534 70.8281 28.6534 70.135C28.6534 69.442 28.0915 68.8801 27.3985 68.8801C26.7054 68.8801 26.1436 69.442 26.1436 70.135C26.1436 70.8281 26.7054 71.3899 27.3985 71.3899Z" fill="#0055FF" fill-opacity="0.6"/>
<path d="M27.3985 80C28.0915 80 28.6534 79.4382 28.6534 78.7451C28.6534 78.0521 28.0915 77.4902 27.3985 77.4902C26.7054 77.4902 26.1436 78.0521 26.1436 78.7451C26.1436 79.4382 26.7054 80 27.3985 80Z" fill="#0055FF"/>
<path d="M36.1133 2.5098C36.8064 2.5098 37.3682 1.94796 37.3682 1.2549C37.3682 0.561838 36.8064 0 36.1133 0C35.4202 0 34.8584 0.561838 34.8584 1.2549C34.8584 1.94796 35.4202 2.5098 36.1133 2.5098Z" fill="#0055FF" fill-opacity="0.6"/>
<path d="M36.1133 11.1198C36.8064 11.1198 37.3682 10.5579 37.3682 9.86489C37.3682 9.17182 36.8064 8.60999 36.1133 8.60999C35.4202 8.60999 34.8584 9.17182 34.8584 9.86489C34.8584 10.5579 35.4202 11.1198 36.1133 11.1198Z" fill="#0055FF"/>
<path d="M36.1133 19.7299C36.8064 19.7299 37.3682 19.1681 37.3682 18.475C37.3682 17.7819 36.8064 17.2201 36.1133 17.2201C35.4202 17.2201 34.8584 17.7819 34.8584 18.475C34.8584 19.1681 35.4202 19.7299 36.1133 19.7299Z" fill="#0055FF" fill-opacity="0.6"/>
<path d="M36.1133 28.3399C36.8064 28.3399 37.3682 27.778 37.3682 27.085C37.3682 26.3919 36.8064 25.8301 36.1133 25.8301C35.4202 25.8301 34.8584 26.3919 34.8584 27.085C34.8584 27.778 35.4202 28.3399 36.1133 28.3399Z" fill="#0055FF"/>
<path d="M36.1133 36.9499C36.8064 36.9499 37.3682 36.388 37.3682 35.695C37.3682 35.0019 36.8064 34.4401 36.1133 34.4401C35.4202 34.4401 34.8584 35.0019 34.8584 35.695C34.8584 36.388 35.4202 36.9499 36.1133 36.9499Z" fill="#0055FF" fill-opacity="0.6"/>
<path d="M36.1133 45.5599C36.8064 45.5599 37.3682 44.998 37.3682 44.305C37.3682 43.6119 36.8064 43.05 36.1133 43.05C35.4202 43.05 34.8584 43.6119 34.8584 44.305C34.8584 44.998 35.4202 45.5599 36.1133 45.5599Z" fill="#0055FF"/>
<path d="M36.1133 54.17C36.8064 54.17 37.3682 53.6081 37.3682 52.9151C37.3682 52.222 36.8064 51.6602 36.1133 51.6602C35.4202 51.6602 34.8584 52.222 34.8584 52.9151C34.8584 53.6081 35.4202 54.17 36.1133 54.17Z" fill="#0055FF" fill-opacity="0.6"/>
<path d="M36.1133 62.7799C36.8064 62.7799 37.3682 62.2181 37.3682 61.525C37.3682 60.832 36.8064 60.2701 36.1133 60.2701C35.4202 60.2701 34.8584 60.832 34.8584 61.525C34.8584 62.2181 35.4202 62.7799 36.1133 62.7799Z" fill="#0055FF"/>
<path d="M36.1133 71.3899C36.8064 71.3899 37.3682 70.8281 37.3682 70.135C37.3682 69.442 36.8064 68.8801 36.1133 68.8801C35.4202 68.8801 34.8584 69.442 34.8584 70.135C34.8584 70.8281 35.4202 71.3899 36.1133 71.3899Z" fill="#0055FF" fill-opacity="0.6"/>
<path d="M36.1133 80C36.8064 80 37.3682 79.4382 37.3682 78.7451C37.3682 78.0521 36.8064 77.4902 36.1133 77.4902C35.4202 77.4902 34.8584 78.0521 34.8584 78.7451C34.8584 79.4382 35.4202 80 36.1133 80Z" fill="#0055FF"/>
<path d="M44.8277 2.5098C45.5207 2.5098 46.0826 1.94796 46.0826 1.2549C46.0826 0.561838 45.5207 0 44.8277 0C44.1346 0 43.5728 0.561838 43.5728 1.2549C43.5728 1.94796 44.1346 2.5098 44.8277 2.5098Z" fill="#0055FF" fill-opacity="0.6"/>
<path d="M44.8277 11.1198C45.5207 11.1198 46.0826 10.5579 46.0826 9.86489C46.0826 9.17182 45.5207 8.60999 44.8277 8.60999C44.1346 8.60999 43.5728 9.17182 43.5728 9.86489C43.5728 10.5579 44.1346 11.1198 44.8277 11.1198Z" fill="#0055FF"/>
<path d="M44.8277 19.7299C45.5207 19.7299 46.0826 19.1681 46.0826 18.475C46.0826 17.7819 45.5207 17.2201 44.8277 17.2201C44.1346 17.2201 43.5728 17.7819 43.5728 18.475C43.5728 19.1681 44.1346 19.7299 44.8277 19.7299Z" fill="#0055FF" fill-opacity="0.6"/>
<path d="M44.8277 28.3399C45.5207 28.3399 46.0826 27.778 46.0826 27.085C46.0826 26.3919 45.5207 25.8301 44.8277 25.8301C44.1346 25.8301 43.5728 26.3919 43.5728 27.085C43.5728 27.778 44.1346 28.3399 44.8277 28.3399Z" fill="#0055FF"/>
<path d="M44.8277 36.9499C45.5207 36.9499 46.0826 36.388 46.0826 35.695C46.0826 35.0019 45.5207 34.4401 44.8277 34.4401C44.1346 34.4401 43.5728 35.0019 43.5728 35.695C43.5728 36.388 44.1346 36.9499 44.8277 36.9499Z" fill="#0055FF" fill-opacity="0.6"/>
<path d="M44.8277 45.5599C45.5207 45.5599 46.0826 44.998 46.0826 44.305C46.0826 43.6119 45.5207 43.05 44.8277 43.05C44.1346 43.05 43.5728 43.6119 43.5728 44.305C43.5728 44.998 44.1346 45.5599 44.8277 45.5599Z" fill="#0055FF"/>
<path d="M44.8277 54.17C45.5207 54.17 46.0826 53.6081 46.0826 52.9151C46.0826 52.222 45.5207 51.6602 44.8277 51.6602C44.1346 51.6602 43.5728 52.222 43.5728 52.9151C43.5728 53.6081 44.1346 54.17 44.8277 54.17Z" fill="#0055FF" fill-opacity="0.6"/>
<path d="M44.8277 62.7799C45.5207 62.7799 46.0826 62.2181 46.0826 61.525C46.0826 60.832 45.5207 60.2701 44.8277 60.2701C44.1346 60.2701 43.5728 60.832 43.5728 61.525C43.5728 62.2181 44.1346 62.7799 44.8277 62.7799Z" fill="#0055FF"/>
<path d="M44.8277 71.3899C45.5207 71.3899 46.0826 70.8281 46.0826 70.135C46.0826 69.442 45.5207 68.8801 44.8277 68.8801C44.1346 68.8801 43.5728 69.442 43.5728 70.135C43.5728 70.8281 44.1346 71.3899 44.8277 71.3899Z" fill="#0055FF" fill-opacity="0.6"/>
<path d="M44.8277 80C45.5207 80 46.0826 79.4382 46.0826 78.7451C46.0826 78.0521 45.5207 77.4902 44.8277 77.4902C44.1346 77.4902 43.5728 78.0521 43.5728 78.7451C43.5728 79.4382 44.1346 80 44.8277 80Z" fill="#0055FF"/>
<path d="M53.5425 2.5098C54.2356 2.5098 54.7974 1.94796 54.7974 1.2549C54.7974 0.561838 54.2356 0 53.5425 0C52.8494 0 52.2876 0.561838 52.2876 1.2549C52.2876 1.94796 52.8494 2.5098 53.5425 2.5098Z" fill="#0055FF" fill-opacity="0.6"/>
<path d="M53.5425 11.1198C54.2356 11.1198 54.7974 10.5579 54.7974 9.86489C54.7974 9.17182 54.2356 8.60999 53.5425 8.60999C52.8494 8.60999 52.2876 9.17182 52.2876 9.86489C52.2876 10.5579 52.8494 11.1198 53.5425 11.1198Z" fill="#0055FF"/>
<path d="M53.5425 19.7299C54.2356 19.7299 54.7974 19.1681 54.7974 18.475C54.7974 17.7819 54.2356 17.2201 53.5425 17.2201C52.8494 17.2201 52.2876 17.7819 52.2876 18.475C52.2876 19.1681 52.8494 19.7299 53.5425 19.7299Z" fill="#0055FF" fill-opacity="0.6"/>
<path d="M53.5425 28.3399C54.2356 28.3399 54.7974 27.778 54.7974 27.085C54.7974 26.3919 54.2356 25.8301 53.5425 25.8301C52.8494 25.8301 52.2876 26.3919 52.2876 27.085C52.2876 27.778 52.8494 28.3399 53.5425 28.3399Z" fill="#0055FF"/>
<path d="M53.5425 36.9499C54.2356 36.9499 54.7974 36.388 54.7974 35.695C54.7974 35.0019 54.2356 34.4401 53.5425 34.4401C52.8494 34.4401 52.2876 35.0019 52.2876 35.695C52.2876 36.388 52.8494 36.9499 53.5425 36.9499Z" fill="#0055FF" fill-opacity="0.6"/>
<path d="M53.5425 45.5599C54.2356 45.5599 54.7974 44.998 54.7974 44.305C54.7974 43.6119 54.2356 43.05 53.5425 43.05C52.8494 43.05 52.2876 43.6119 52.2876 44.305C52.2876 44.998 52.8494 45.5599 53.5425 45.5599Z" fill="#0055FF"/>
<path d="M53.5425 54.17C54.2356 54.17 54.7974 53.6081 54.7974 52.9151C54.7974 52.222 54.2356 51.6602 53.5425 51.6602C52.8494 51.6602 52.2876 52.222 52.2876 52.9151C52.2876 53.6081 52.8494 54.17 53.5425 54.17Z" fill="#0055FF" fill-opacity="0.6"/>
<path d="M53.5425 62.7799C54.2356 62.7799 54.7974 62.2181 54.7974 61.525C54.7974 60.832 54.2356 60.2701 53.5425 60.2701C52.8494 60.2701 52.2876 60.832 52.2876 61.525C52.2876 62.2181 52.8494 62.7799 53.5425 62.7799Z" fill="#0055FF"/>
<path d="M53.5425 71.3899C54.2356 71.3899 54.7974 70.8281 54.7974 70.135C54.7974 69.442 54.2356 68.8801 53.5425 68.8801C52.8494 68.8801 52.2876 69.442 52.2876 70.135C52.2876 70.8281 52.8494 71.3899 53.5425 71.3899Z" fill="#0055FF" fill-opacity="0.6"/>
<path d="M53.5425 80C54.2356 80 54.7974 79.4382 54.7974 78.7451C54.7974 78.0521 54.2356 77.4902 53.5425 77.4902C52.8494 77.4902 52.2876 78.0521 52.2876 78.7451C52.2876 79.4382 52.8494 80 53.5425 80Z" fill="#0055FF"/>
<path d="M62.2569 2.5098C62.9499 2.5098 63.5118 1.94796 63.5118 1.2549C63.5118 0.561838 62.9499 0 62.2569 0C61.5638 0 61.002 0.561838 61.002 1.2549C61.002 1.94796 61.5638 2.5098 62.2569 2.5098Z" fill="#0055FF" fill-opacity="0.6"/>
<path d="M62.2569 11.1198C62.9499 11.1198 63.5118 10.5579 63.5118 9.86489C63.5118 9.17182 62.9499 8.60999 62.2569 8.60999C61.5638 8.60999 61.002 9.17182 61.002 9.86489C61.002 10.5579 61.5638 11.1198 62.2569 11.1198Z" fill="#0055FF"/>
<path d="M62.2569 19.7299C62.9499 19.7299 63.5118 19.1681 63.5118 18.475C63.5118 17.7819 62.9499 17.2201 62.2569 17.2201C61.5638 17.2201 61.002 17.7819 61.002 18.475C61.002 19.1681 61.5638 19.7299 62.2569 19.7299Z" fill="#0055FF" fill-opacity="0.6"/>
<path d="M62.2569 28.3399C62.9499 28.3399 63.5118 27.778 63.5118 27.085C63.5118 26.3919 62.9499 25.8301 62.2569 25.8301C61.5638 25.8301 61.002 26.3919 61.002 27.085C61.002 27.778 61.5638 28.3399 62.2569 28.3399Z" fill="#0055FF"/>
<path d="M62.2569 36.9499C62.9499 36.9499 63.5118 36.388 63.5118 35.695C63.5118 35.0019 62.9499 34.4401 62.2569 34.4401C61.5638 34.4401 61.002 35.0019 61.002 35.695C61.002 36.388 61.5638 36.9499 62.2569 36.9499Z" fill="#0055FF" fill-opacity="0.6"/>
<path d="M62.2569 45.5599C62.9499 45.5599 63.5118 44.998 63.5118 44.305C63.5118 43.6119 62.9499 43.05 62.2569 43.05C61.5638 43.05 61.002 43.6119 61.002 44.305C61.002 44.998 61.5638 45.5599 62.2569 45.5599Z" fill="#0055FF"/>
<path d="M62.2569 54.17C62.9499 54.17 63.5118 53.6081 63.5118 52.9151C63.5118 52.222 62.9499 51.6602 62.2569 51.6602C61.5638 51.6602 61.002 52.222 61.002 52.9151C61.002 53.6081 61.5638 54.17 62.2569 54.17Z" fill="#0055FF" fill-opacity="0.6"/>
<path d="M62.2569 62.7799C62.9499 62.7799 63.5118 62.2181 63.5118 61.525C63.5118 60.832 62.9499 60.2701 62.2569 60.2701C61.5638 60.2701 61.002 60.832 61.002 61.525C61.002 62.2181 61.5638 62.7799 62.2569 62.7799Z" fill="#0055FF"/>
<path d="M62.2569 71.3899C62.9499 71.3899 63.5118 70.8281 63.5118 70.135C63.5118 69.442 62.9499 68.8801 62.2569 68.8801C61.5638 68.8801 61.002 69.442 61.002 70.135C61.002 70.8281 61.5638 71.3899 62.2569 71.3899Z" fill="#0055FF" fill-opacity="0.6"/>
<path d="M62.2569 80C62.9499 80 63.5118 79.4382 63.5118 78.7451C63.5118 78.0521 62.9499 77.4902 62.2569 77.4902C61.5638 77.4902 61.002 78.0521 61.002 78.7451C61.002 79.4382 61.5638 80 62.2569 80Z" fill="#0055FF"/>
<path d="M70.9717 2.5098C71.6648 2.5098 72.2266 1.94796 72.2266 1.2549C72.2266 0.561838 71.6648 0 70.9717 0C70.2786 0 69.7168 0.561838 69.7168 1.2549C69.7168 1.94796 70.2786 2.5098 70.9717 2.5098Z" fill="#0055FF" fill-opacity="0.6"/>
<path d="M70.9717 11.1198C71.6648 11.1198 72.2266 10.5579 72.2266 9.86489C72.2266 9.17182 71.6648 8.60999 70.9717 8.60999C70.2786 8.60999 69.7168 9.17182 69.7168 9.86489C69.7168 10.5579 70.2786 11.1198 70.9717 11.1198Z" fill="#0055FF"/>
<path d="M70.9717 19.7299C71.6648 19.7299 72.2266 19.1681 72.2266 18.475C72.2266 17.7819 71.6648 17.2201 70.9717 17.2201C70.2786 17.2201 69.7168 17.7819 69.7168 18.475C69.7168 19.1681 70.2786 19.7299 70.9717 19.7299Z" fill="#0055FF" fill-opacity="0.6"/>
<path d="M70.9717 28.3399C71.6648 28.3399 72.2266 27.778 72.2266 27.085C72.2266 26.3919 71.6648 25.8301 70.9717 25.8301C70.2786 25.8301 69.7168 26.3919 69.7168 27.085C69.7168 27.778 70.2786 28.3399 70.9717 28.3399Z" fill="#0055FF"/>
<path d="M70.9717 36.9499C71.6648 36.9499 72.2266 36.388 72.2266 35.695C72.2266 35.0019 71.6648 34.4401 70.9717 34.4401C70.2786 34.4401 69.7168 35.0019 69.7168 35.695C69.7168 36.388 70.2786 36.9499 70.9717 36.9499Z" fill="#0055FF" fill-opacity="0.6"/>
<path d="M70.9717 45.5599C71.6648 45.5599 72.2266 44.998 72.2266 44.305C72.2266 43.6119 71.6648 43.05 70.9717 43.05C70.2786 43.05 69.7168 43.6119 69.7168 44.305C69.7168 44.998 70.2786 45.5599 70.9717 45.5599Z" fill="#0055FF"/>
<path d="M70.9717 54.17C71.6648 54.17 72.2266 53.6081 72.2266 52.9151C72.2266 52.222 71.6648 51.6602 70.9717 51.6602C70.2786 51.6602 69.7168 52.222 69.7168 52.9151C69.7168 53.6081 70.2786 54.17 70.9717 54.17Z" fill="#0055FF" fill-opacity="0.6"/>
<path d="M70.9717 62.7799C71.6648 62.7799 72.2266 62.2181 72.2266 61.525C72.2266 60.832 71.6648 60.2701 70.9717 60.2701C70.2786 60.2701 69.7168 60.832 69.7168 61.525C69.7168 62.2181 70.2786 62.7799 70.9717 62.7799Z" fill="#0055FF"/>
<path d="M70.9717 71.3899C71.6648 71.3899 72.2266 70.8281 72.2266 70.135C72.2266 69.442 71.6648 68.8801 70.9717 68.8801C70.2786 68.8801 69.7168 69.442 69.7168 70.135C69.7168 70.8281 70.2786 71.3899 70.9717 71.3899Z" fill="#0055FF" fill-opacity="0.6"/>
<path d="M70.9717 80C71.6648 80 72.2266 79.4382 72.2266 78.7451C72.2266 78.0521 71.6648 77.4902 70.9717 77.4902C70.2786 77.4902 69.7168 78.0521 69.7168 78.7451C69.7168 79.4382 70.2786 80 70.9717 80Z" fill="#0055FF"/>
<path d="M79.6861 2.5098C80.3791 2.5098 80.941 1.94796 80.941 1.2549C80.941 0.561838 80.3791 0 79.6861 0C78.993 0 78.4312 0.561838 78.4312 1.2549C78.4312 1.94796 78.993 2.5098 79.6861 2.5098Z" fill="#0055FF" fill-opacity="0.6"/>
<path d="M79.6861 11.1198C80.3791 11.1198 80.941 10.5579 80.941 9.86489C80.941 9.17182 80.3791 8.60999 79.6861 8.60999C78.993 8.60999 78.4312 9.17182 78.4312 9.86489C78.4312 10.5579 78.993 11.1198 79.6861 11.1198Z" fill="#0055FF"/>
<path d="M79.6861 19.7299C80.3791 19.7299 80.941 19.1681 80.941 18.475C80.941 17.7819 80.3791 17.2201 79.6861 17.2201C78.993 17.2201 78.4312 17.7819 78.4312 18.475C78.4312 19.1681 78.993 19.7299 79.6861 19.7299Z" fill="#0055FF" fill-opacity="0.6"/>
<path d="M79.6861 28.3399C80.3791 28.3399 80.941 27.778 80.941 27.085C80.941 26.3919 80.3791 25.8301 79.6861 25.8301C78.993 25.8301 78.4312 26.3919 78.4312 27.085C78.4312 27.778 78.993 28.3399 79.6861 28.3399Z" fill="#0055FF"/>
<path d="M79.6861 36.9499C80.3791 36.9499 80.941 36.388 80.941 35.695C80.941 35.0019 80.3791 34.4401 79.6861 34.4401C78.993 34.4401 78.4312 35.0019 78.4312 35.695C78.4312 36.388 78.993 36.9499 79.6861 36.9499Z" fill="#0055FF" fill-opacity="0.6"/>
<path d="M79.6861 45.5599C80.3791 45.5599 80.941 44.998 80.941 44.305C80.941 43.6119 80.3791 43.05 79.6861 43.05C78.993 43.05 78.4312 43.6119 78.4312 44.305C78.4312 44.998 78.993 45.5599 79.6861 45.5599Z" fill="#0055FF"/>
<path d="M79.6861 54.17C80.3791 54.17 80.941 53.6081 80.941 52.9151C80.941 52.222 80.3791 51.6602 79.6861 51.6602C78.993 51.6602 78.4312 52.222 78.4312 52.9151C78.4312 53.6081 78.993 54.17 79.6861 54.17Z" fill="#0055FF" fill-opacity="0.6"/>
<path d="M79.6861 62.7799C80.3791 62.7799 80.941 62.2181 80.941 61.525C80.941 60.832 80.3791 60.2701 79.6861 60.2701C78.993 60.2701 78.4312 60.832 78.4312 61.525C78.4312 62.2181 78.993 62.7799 79.6861 62.7799Z" fill="#0055FF"/>
<path d="M79.6861 71.3899C80.3791 71.3899 80.941 70.8281 80.941 70.135C80.941 69.442 80.3791 68.8801 79.6861 68.8801C78.993 68.8801 78.4312 69.442 78.4312 70.135C78.4312 70.8281 78.993 71.3899 79.6861 71.3899Z" fill="#0055FF" fill-opacity="0.6"/>
<path d="M79.6861 80C80.3791 80 80.941 79.4382 80.941 78.7451C80.941 78.0521 80.3791 77.4902 79.6861 77.4902C78.993 77.4902 78.4312 78.0521 78.4312 78.7451C78.4312 79.4382 78.993 80 79.6861 80Z" fill="#0055FF"/>
</svg>
