<svg width="97" height="33" viewBox="0 0 97 33" fill="none" xmlns="http://www.w3.org/2000/svg">
<path d="M25.215 12.0414H14.3879V15.2174H22.0872C21.7022 19.6925 17.9488 21.6655 14.4361 21.6655C9.91275 21.6655 5.96688 18.1046 5.96688 13.1482C5.96688 8.28803 9.72027 4.53464 14.4361 4.53464C18.0932 4.53464 20.2105 6.84442 20.2105 6.84442L22.424 4.53464C22.424 4.53464 19.5368 1.3587 14.2917 1.3587C7.60297 1.31058 2.4541 6.94066 2.4541 13.0519C2.4541 19.0189 7.31425 24.8414 14.4842 24.8414C20.7879 24.8414 25.4075 20.5587 25.4075 14.1587C25.4075 12.8113 25.215 12.0414 25.215 12.0414Z" fill="#8C98A4"/>
<path d="M34.021 9.68359C29.5939 9.68359 26.418 13.1483 26.418 17.1904C26.418 21.3287 29.4977 24.8415 34.1172 24.8415C38.3037 24.8415 41.6721 21.7137 41.6721 17.2866C41.624 12.2821 37.6781 9.68359 34.021 9.68359ZM34.0691 12.7152C36.2345 12.7152 38.3037 14.4956 38.3037 17.2866C38.3037 20.0776 36.2826 21.858 34.0691 21.858C31.6631 21.858 29.7864 19.9332 29.7864 17.2385C29.7383 14.64 31.615 12.7152 34.0691 12.7152Z" fill="#8C98A4"/>
<path d="M50.5747 9.68359C46.1476 9.68359 42.9717 13.1483 42.9717 17.1904C42.9717 21.3287 46.0514 24.8415 50.6709 24.8415C54.8574 24.8415 58.2258 21.7137 58.2258 17.2866C58.1777 12.2821 54.2318 9.68359 50.5747 9.68359ZM50.6228 12.7152C52.7882 12.7152 54.8574 14.4956 54.8574 17.2866C54.8574 20.0776 52.8363 21.858 50.6228 21.858C48.2168 21.858 46.3401 19.9332 46.3401 17.2385C46.292 14.64 48.1687 12.7152 50.6228 12.7152Z" fill="#8C98A4"/>
<path d="M66.7911 9.73169C62.7008 9.73169 59.5249 13.2926 59.5249 17.2866C59.5249 21.8099 63.2302 24.8896 66.6948 24.8896C68.8602 24.8896 69.967 24.0715 70.8813 23.061V24.5527C70.8813 27.1512 69.2933 28.7392 66.8873 28.7392C64.5775 28.7392 63.4226 27.0069 62.9896 26.0445L60.0542 27.2475C61.0648 29.4129 63.1339 31.6745 66.8392 31.6745C70.8813 31.6745 73.961 29.1242 73.961 23.7828V10.1648H70.7851V11.464C69.9189 10.4054 68.5715 9.73169 66.7911 9.73169ZM67.0798 12.7151C69.0527 12.7151 71.1219 14.4475 71.1219 17.3347C71.1219 20.3182 69.1008 21.9061 67.0317 21.9061C64.8663 21.9061 62.8452 20.1257 62.8452 17.3828C62.8933 14.3994 64.9625 12.7151 67.0798 12.7151Z" fill="#8C98A4"/>
<path d="M88.2045 9.68359C84.3549 9.68359 81.1309 12.7152 81.1309 17.2385C81.1309 22.0024 84.7399 24.8415 88.5414 24.8415C91.7173 24.8415 93.7384 23.061 94.8933 21.5212L92.2467 19.7407C91.573 20.7994 90.4181 21.8099 88.5414 21.8099C86.4241 21.8099 85.4617 20.655 84.8361 19.5001L94.9895 15.2655L94.4602 14.0144C93.4497 11.7046 91.188 9.68359 88.2045 9.68359ZM88.3008 12.6189C89.6963 12.6189 90.6587 13.3407 91.1399 14.255L84.403 17.0941C84.0181 14.8806 86.1354 12.6189 88.3008 12.6189Z" fill="#8C98A4"/>
<path d="M76.3188 24.4084H79.6392V2.08057H76.3188V24.4084Z" fill="#8C98A4"/>
</svg>
