<svg width="48" height="48" viewBox="0 0 48 48" fill="none" xmlns="http://www.w3.org/2000/svg">
<rect width="48.0016" height="48" rx="4" fill="#3CD278" fill-opacity="0.12"/>
<path d="M21 26C23.67 26 29 27.33 29 30V32H13V30C13 27.33 18.33 26 21 26ZM30 22V19H32V22H35V24H32V27H30V24H27V22M21 24C19.9391 24 18.9217 23.5786 18.1716 22.8284C17.4214 22.0783 17 21.0609 17 20C17 18.9391 17.4214 17.9217 18.1716 17.1716C18.9217 16.4214 19.9391 16 21 16C22.0609 16 23.0783 16.4214 23.8284 17.1716C24.5786 17.9217 25 18.9391 25 20C25 21.0609 24.5786 22.0783 23.8284 22.8284C23.0783 23.5786 22.0609 24 21 24Z" fill="#3CD278"/>
</svg>
