<svg width="48" height="48" viewBox="0 0 48 48" fill="none" xmlns="http://www.w3.org/2000/svg">
<rect width="48.0016" height="48" rx="4" fill="#0055FF" fill-opacity="0.12"/>
<path d="M28 29.0001V31.0001H14V29.0001C14 29.0001 14 25.0001 21 25.0001C28 25.0001 28 29.0001 28 29.0001ZM24.5 19.5001C24.5 18.8078 24.2947 18.1311 23.9101 17.5556C23.5256 16.98 22.9789 16.5314 22.3394 16.2665C21.6999 16.0016 20.9961 15.9323 20.3172 16.0673C19.6382 16.2024 19.0146 16.5357 18.5251 17.0252C18.0356 17.5147 17.7023 18.1383 17.5673 18.8172C17.4322 19.4962 17.5015 20.1999 17.7664 20.8394C18.0313 21.479 18.4799 22.0256 19.0555 22.4102C19.6311 22.7948 20.3078 23.0001 21 23.0001C21.9283 23.0001 22.8185 22.6313 23.4749 21.9749C24.1313 21.3185 24.5 20.4283 24.5 19.5001ZM27.94 25.0001C28.5547 25.4758 29.0578 26.0805 29.4137 26.7716C29.7696 27.4626 29.9697 28.2233 30 29.0001V31.0001H34V29.0001C34 29.0001 34 25.3701 27.94 25.0001ZM27 16.0001C26.3117 15.9962 25.6385 16.202 25.07 16.5901C25.6774 17.4388 26.0041 18.4563 26.0041 19.5001C26.0041 20.5438 25.6774 21.5613 25.07 22.4101C25.6385 22.7981 26.3117 23.0039 27 23.0001C27.9283 23.0001 28.8185 22.6313 29.4749 21.9749C30.1313 21.3185 30.5 20.4283 30.5 19.5001C30.5 18.5718 30.1313 17.6816 29.4749 17.0252C28.8185 16.3688 27.9283 16.0001 27 16.0001Z" fill="#0055FF"/>
</svg>
