<svg width="21" height="20" viewBox="0 0 21 20" fill="none" xmlns="http://www.w3.org/2000/svg">
<path d="M13.673 6.39648C14.9454 6.39648 16.1656 6.90193 17.0653 7.80164C17.965 8.70135 18.4705 9.92161 18.4705 11.194V16.7911H15.2722V11.194C15.2722 10.7699 15.1037 10.3631 14.8038 10.0632C14.5039 9.7633 14.0971 9.59482 13.673 9.59482C13.2489 9.59482 12.8421 9.7633 12.5422 10.0632C12.2423 10.3631 12.0738 10.7699 12.0738 11.194V16.7911H8.87549V11.194C8.87549 9.92161 9.38094 8.70135 10.2806 7.80164C11.1803 6.90193 12.4006 6.39648 13.673 6.39648Z" stroke="#495057" stroke-linecap="round" stroke-linejoin="round"/>
<path d="M5.67734 7.19629H2.479V16.7913H5.67734V7.19629Z" stroke="#495057" stroke-linecap="round" stroke-linejoin="round"/>
<path d="M4.07817 4.79745C4.96137 4.79745 5.67734 4.08148 5.67734 3.19829C5.67734 2.31509 4.96137 1.59912 4.07817 1.59912C3.19498 1.59912 2.479 2.31509 2.479 3.19829C2.479 4.08148 3.19498 4.79745 4.07817 4.79745Z" stroke="#495057" stroke-linecap="round" stroke-linejoin="round"/>
</svg>
