<svg width="98" height="33" viewBox="0 0 98 33" fill="none" xmlns="http://www.w3.org/2000/svg">
<g clip-path="url(#clip0_16_9389)">
<path d="M78.7246 10.7902C77.9547 9.92407 76.6073 9.44287 74.8269 9.44287H69.4855C69.1006 9.44287 68.8118 9.73159 68.7637 10.0684L66.5983 23.7346C66.5502 24.0233 66.7427 24.2639 67.0314 24.2639H69.7743C70.0149 24.2639 70.2555 24.0714 70.3036 23.8308L70.9291 19.9812C70.9773 19.6444 71.3141 19.3557 71.6509 19.3557H73.3352C76.8479 19.3557 78.869 17.6714 79.3983 14.303C79.6389 12.7632 79.3983 11.6083 78.7246 10.7902ZM75.4524 14.4474C75.1637 16.3722 73.7201 16.3722 72.2765 16.3722H71.4585L72.0359 12.8113C72.084 12.6188 72.2765 12.4263 72.469 12.4263H72.854C73.8164 12.4263 74.7306 12.4263 75.2118 12.9557C75.4524 13.2925 75.5487 13.7737 75.4524 14.4474ZM90.7547 14.3993H88.2043C87.9637 14.3993 87.8194 14.5436 87.7712 14.7842L87.675 15.506L87.4825 15.2654C86.9532 14.4474 85.7021 14.2068 84.4509 14.2068C81.6118 14.2068 79.2058 16.3241 78.7727 19.3557C78.5321 20.8474 78.869 22.291 79.7351 23.2534C80.5051 24.1677 81.6118 24.5526 82.9592 24.5526C85.2209 24.5526 86.472 23.109 86.472 23.109L86.3758 23.8308C86.3276 24.1196 86.5201 24.3602 86.8088 24.3602H89.1186C89.5036 24.3602 89.7923 24.0714 89.8404 23.7346L91.2359 15.0248C91.2359 14.6399 91.0434 14.3993 90.7547 14.3993ZM87.1938 19.3557C86.9532 20.7993 85.7983 21.8098 84.3066 21.8098C83.5848 21.8098 82.9592 21.5692 82.5743 21.1361C82.1893 20.703 82.0449 20.0293 82.1893 19.3557C82.4299 17.912 83.5848 16.9015 85.0284 16.9015C85.7502 16.9015 86.3276 17.1421 86.7126 17.5752C87.1457 18.0083 87.3382 18.6338 87.1938 19.3557ZM96.6735 9.44287H94.2194C93.9788 9.44287 93.8344 9.58723 93.7863 9.82783L91.6209 23.7346C91.5727 24.0233 91.7652 24.2639 92.0539 24.2639H94.2675C94.6524 24.2639 94.9412 24.0233 94.9893 23.6384L97.1066 9.97219C97.1547 9.68347 96.9141 9.44287 96.6735 9.44287ZM40.7577 10.7902C39.9878 9.92407 38.6404 9.44287 36.86 9.44287H31.5186C31.1336 9.44287 30.8449 9.73159 30.7968 10.0684L28.6314 23.7346C28.5833 24.0233 28.7758 24.2639 29.0645 24.2639H31.6149C31.9998 24.2639 32.2885 24.0233 32.3367 23.6384L32.9141 19.9331C32.9622 19.5963 33.2991 19.3075 33.6359 19.3075H35.3201C38.8329 19.3075 40.8539 17.6233 41.3833 14.2549C41.672 12.7632 41.4314 11.6083 40.7577 10.7902ZM37.4855 14.4474C37.1968 16.3722 35.7532 16.3722 34.3096 16.3722H33.4915L34.069 12.8113C34.1171 12.6188 34.3096 12.4263 34.5021 12.4263H34.887C35.8494 12.4263 36.7637 12.4263 37.2449 12.9557C37.4855 13.2925 37.5818 13.7737 37.4855 14.4474ZM52.7878 14.3993H50.2374C49.9968 14.3993 49.8524 14.5436 49.8043 14.7842L49.7081 15.506L49.5156 15.2654C48.9863 14.4474 47.7352 14.2068 46.484 14.2068C43.6449 14.2068 41.2389 16.3241 40.8058 19.3557C40.5652 20.8474 40.9021 22.291 41.7682 23.2534C42.5382 24.1677 43.6449 24.5526 44.9923 24.5526C47.2539 24.5526 48.5051 23.109 48.5051 23.109L48.4088 23.8308C48.3607 24.1196 48.5532 24.3602 48.8419 24.3602H51.1517C51.5367 24.3602 51.8254 24.0714 51.8735 23.7346L53.269 15.0248C53.269 14.6399 53.0284 14.3993 52.7878 14.3993ZM49.2269 19.3557C48.9863 20.7993 47.8314 21.8098 46.3397 21.8098C45.6179 21.8098 44.9923 21.5692 44.6073 21.1361C44.2224 20.703 44.078 20.0293 44.2224 19.3557C44.463 17.912 45.6179 16.9015 47.0615 16.9015C47.7833 16.9015 48.3607 17.1421 48.7457 17.5752C49.1788 18.0083 49.3231 18.6338 49.2269 19.3557ZM66.3577 14.3993H63.8073C63.5667 14.3993 63.3261 14.5436 63.1818 14.7361L59.669 19.9331L58.1291 14.9286C58.0329 14.5917 57.7442 14.3993 57.4073 14.3993H54.9051C54.6164 14.3993 54.3758 14.688 54.472 14.9767L57.3111 23.2534L54.6645 27.0068C54.472 27.2955 54.6645 27.7286 55.0494 27.7286H57.5998C57.8404 27.7286 58.081 27.6323 58.2254 27.3917L66.7427 15.0729C66.9352 14.7842 66.6946 14.3993 66.3577 14.3993Z" fill="#8C98A4"/>
<path d="M19.8735 10.9828C19.5848 10.646 19.2479 10.4054 18.8148 10.1648C18.8148 10.3092 18.7667 10.4535 18.7186 10.5979C18.6705 10.7422 18.6705 10.8866 18.6224 10.9828C17.7081 15.0731 15.1096 16.8054 11.7412 17.1904C11.5006 17.2385 11.3081 17.2385 11.0675 17.2385H8.13214C7.60282 17.2385 7.16974 17.6234 7.12162 18.1046L6.15921 24.264L6.01485 25.0821L5.67801 27.055C5.62989 27.3919 5.87049 27.6806 6.20733 27.6806H10.0088C10.4419 27.6806 10.8269 27.3437 10.9231 26.9107L10.9712 26.7182L11.693 22.1949L11.7412 21.9543C11.7893 21.5212 12.1742 21.1843 12.6555 21.1843H13.2329C16.9382 21.1843 19.7773 19.6926 20.6434 15.3618C20.9803 13.5332 20.7878 12.0415 19.8735 10.9828Z" fill="#909DA5"/>
<path d="M7.12173 18.1526L7.16985 17.912L8.37285 10.2128C8.42098 9.92407 8.61346 9.63535 8.90218 9.53911C9.04654 9.49099 9.14278 9.44287 9.28714 9.44287H15.0135C15.6871 9.44287 16.3127 9.49099 16.8901 9.58723C17.0345 9.63535 17.227 9.63535 17.3714 9.68347C17.5157 9.73159 17.6601 9.77971 17.8044 9.77971C17.8526 9.77971 17.9007 9.82783 17.9488 9.82783H18.045C18.3338 9.92407 18.5744 10.0203 18.815 10.1647C19.1037 8.3361 18.815 7.08497 17.8044 5.9782C16.7458 4.72708 14.7729 4.19775 12.2706 4.19775H4.95631C4.42699 4.19775 3.99391 4.58272 3.94579 5.06392L0.866087 24.3602C0.817967 24.7451 1.10669 25.082 1.49165 25.082H6.01496L6.15932 24.2639L7.12173 18.1526Z" fill="#8C98A4"/>
<path d="M18.8153 10.1647C18.5747 10.0203 18.3341 9.92407 18.0454 9.82783H17.9491C17.901 9.82783 17.8529 9.77971 17.8048 9.77971C17.6604 9.73159 17.5161 9.68347 17.3717 9.68347C17.2273 9.63535 17.0349 9.63535 16.8905 9.58723C16.313 9.49099 15.6875 9.44287 15.0138 9.44287H9.23936C9.095 9.44287 8.95064 9.49099 8.8544 9.53911C8.6138 9.68347 8.3732 9.92407 8.32508 10.2128L7.12207 17.912V18.1526C7.21831 17.6233 7.65139 17.2865 8.1326 17.2865H11.0679C11.3085 17.2865 11.5491 17.2384 11.7416 17.2384C15.11 16.8534 17.7085 15.1211 18.6709 11.079C18.7191 10.9346 18.7191 10.8384 18.7672 10.694C18.7672 10.4534 18.8153 10.309 18.8153 10.1647Z" fill="#8C98A4"/>
</g>
<defs>
<clipPath id="clip0_16_9389">
<rect width="96.4331" height="32" fill="white" transform="translate(0.866211 0.300049)"/>
</clipPath>
</defs>
</svg>
