<svg width="98" height="33" viewBox="0 0 98 33" fill="none" xmlns="http://www.w3.org/2000/svg">
<g clip-path="url(#clip0_16_9396)">
<path d="M21.7127 7.66237C21.7127 7.51801 21.5683 7.46989 21.4721 7.42177C21.3758 7.42177 19.3067 7.27741 19.3067 7.27741L17.7187 5.68944C17.5743 5.54508 17.2375 5.5932 17.1412 5.5932C17.1412 5.5932 16.8044 5.68944 16.3232 5.8338C15.842 4.43831 15.024 3.18719 13.5322 3.18719H13.436C13.0029 2.65786 12.4736 2.36914 12.0405 2.36914C8.57583 2.36914 6.93974 6.69997 6.41042 8.9135C5.06305 9.34658 4.10065 9.63531 4.00441 9.63531C3.2826 9.87591 3.23448 9.87591 3.13824 10.5977C3.042 11.0789 1.11719 26.2849 1.11719 26.2849L16.3713 29.124L24.648 27.3917C24.648 27.3917 21.7608 7.80673 21.7127 7.66237ZM15.5052 6.12252C15.1202 6.26689 14.6871 6.36313 14.2059 6.50749V6.21876C14.2059 5.3526 14.0615 4.67892 13.8691 4.14959C14.6871 4.19771 15.2164 5.112 15.5052 6.12252ZM13.0029 4.34207C13.1954 4.8714 13.3397 5.64132 13.3397 6.65185V6.79621C12.5217 7.03681 11.6074 7.32553 10.6931 7.61425C11.1743 5.64132 12.1367 4.67891 13.0029 4.34207ZM11.9443 3.37967C12.0886 3.37967 12.233 3.42779 12.3773 3.52403C11.2706 4.05335 10.0676 5.3526 9.58636 7.99922C8.86456 8.23982 8.14275 8.4323 7.46907 8.62478C8.09463 6.60373 9.49012 3.37967 11.9443 3.37967Z" fill="#8C98A4"/>
<path d="M21.4721 7.42183C21.3759 7.42183 19.3067 7.27747 19.3067 7.27747L17.7187 5.6895C17.6706 5.64138 17.5744 5.59326 17.4781 5.59326L16.3232 29.1722L24.6481 27.3918C24.6481 27.3918 21.7608 7.75868 21.7127 7.61431C21.7127 7.46995 21.5684 7.42183 21.4721 7.42183Z" fill="#8C98A4"/>
<path d="M13.5804 11.9934L12.5699 15.025C12.5699 15.025 11.6556 14.5438 10.597 14.5438C9.009 14.5438 8.91276 15.5543 8.91276 15.7949C8.91276 17.1904 12.5218 17.7197 12.5218 20.9438C12.5218 23.4941 10.8857 25.1302 8.72028 25.1302C6.12178 25.1302 4.77441 23.4941 4.77441 23.4941L5.4481 21.1844C5.4481 21.1844 6.84359 22.3874 7.99847 22.3874C8.7684 22.3874 9.05712 21.8099 9.05712 21.3287C9.05712 19.5002 6.07366 19.452 6.07366 16.4686C6.07366 13.9663 7.85411 11.5603 11.5113 11.5603C12.9067 11.5603 13.5804 11.9934 13.5804 11.9934Z" fill="white"/>
<path d="M34.3204 17.6716C33.5023 17.2385 33.0693 16.8535 33.0693 16.3242C33.0693 15.6505 33.6467 15.2174 34.6091 15.2174C35.6678 15.2174 36.6302 15.6505 36.6302 15.6505L37.4001 13.3407C37.4001 13.3407 36.7264 12.8114 34.6572 12.8114C31.8181 12.8114 29.8452 14.4475 29.8452 16.7092C29.8452 18.0084 30.7595 19.0189 32.0106 19.6926C33.0211 20.2701 33.358 20.655 33.358 21.2325C33.358 21.858 32.8768 22.3392 31.9144 22.3392C30.5189 22.3392 29.2678 21.6174 29.2678 21.6174L28.4497 23.9272C28.4497 23.9272 29.6527 24.7453 31.6738 24.7453C34.6091 24.7453 36.6783 23.3016 36.6783 20.7032C36.6302 19.4039 35.5715 18.4415 34.3204 17.6716ZM45.9655 12.8595C44.5219 12.8595 43.4151 13.5332 42.5008 14.5919H42.4527L43.7038 7.99939H40.4317L37.2557 24.649H40.5279L41.6347 18.9708C42.0678 16.8054 43.1745 15.5062 44.185 15.5062C44.9069 15.5062 45.1956 15.9874 45.1956 16.7092C45.1956 17.1422 45.1475 17.7197 45.0512 18.1528L43.8001 24.649H47.1204L48.4196 17.9122C48.564 17.1904 48.6602 16.3723 48.6602 15.7949C48.6121 13.9663 47.6497 12.8595 45.9655 12.8595ZM55.9745 12.8595C52.0768 12.8595 49.4783 16.4204 49.4783 20.3182C49.4783 22.8686 51.0181 24.8896 53.9535 24.8896C57.8031 24.8896 60.4016 21.425 60.4016 17.431C60.4016 15.025 59.0061 12.8595 55.9745 12.8595ZM54.3865 22.3392C53.2798 22.3392 52.7986 21.3768 52.7986 20.2219C52.7986 18.3453 53.761 15.3137 55.5414 15.3137C56.6963 15.3137 57.0813 16.3242 57.0813 17.2866C57.0332 19.2595 56.0708 22.3392 54.3865 22.3392ZM68.7264 12.8595C66.5129 12.8595 65.2617 14.7844 65.2617 14.7844H65.2136L65.4061 13.052H62.5189C62.3745 14.255 62.1339 16.0355 61.8452 17.3828L59.6317 29.2686H62.8557L63.77 24.4565H63.8181C63.8181 24.4565 64.4918 24.8896 65.7429 24.8896C69.5444 24.8896 72.0467 20.9919 72.0467 16.9979C72.0467 14.7844 71.0843 12.8595 68.7264 12.8595ZM65.5986 22.3392C64.7324 22.3392 64.2512 21.858 64.2512 21.858L64.7805 18.8265C65.1655 16.8054 66.2241 15.458 67.3309 15.458C68.3414 15.458 68.6302 16.3723 68.6302 17.2385C68.6783 19.4039 67.4272 22.3392 65.5986 22.3392ZM76.7144 8.14375C75.6557 8.14375 74.8377 8.9618 74.8377 10.0204C74.8377 10.9828 75.4632 11.6565 76.3775 11.6565H76.4256C77.4362 11.6565 78.3023 10.9828 78.3505 9.77984C78.3505 8.86556 77.6768 8.14375 76.7144 8.14375ZM72.1429 24.5528H75.4151L77.6287 13.0039H74.3565M85.9053 13.1001H83.6437L83.7399 12.5708C83.9324 11.4641 84.6061 10.4535 85.6647 10.4535C86.2422 10.4535 86.7234 10.5979 86.7234 10.5979L87.349 8.04751C87.349 8.04751 86.7715 7.75879 85.5685 7.75879C84.4136 7.75879 83.2587 8.09563 82.3926 8.86556C81.2858 9.82796 80.7565 11.1753 80.5159 12.5227L80.4196 13.052H78.8798L78.3986 15.5062H79.9384L78.2061 24.5528H81.4783L83.2106 15.458H85.4723L85.9053 13.1001ZM93.7008 13.1001C93.7008 13.1001 91.6798 18.249 90.7655 21.04H90.7174C90.6693 20.1257 89.8993 13.1001 89.8993 13.1001H86.4828L88.4557 23.6866C88.5038 23.9272 88.4557 24.0716 88.4076 24.2159C88.0226 24.9377 87.3971 25.6595 86.6271 26.1889C86.0016 26.6219 85.3279 26.9107 84.7986 27.1032L85.7129 29.846C86.3866 29.7016 87.7339 29.1723 88.8888 28.0656C90.3805 26.6701 91.7279 24.5047 93.1715 21.6174L97.1655 13.1001H93.7008Z" fill="#8C98A4"/>
</g>
<defs>
<clipPath id="clip0_16_9396">
<rect width="96.4331" height="32" fill="white" transform="translate(0.732422 0.300049)"/>
</clipPath>
</defs>
</svg>
