<svg width="97" height="33" viewBox="0 0 97 33" fill="none" xmlns="http://www.w3.org/2000/svg">
<g clip-path="url(#clip0_16_9394)">
<path d="M14.7354 1.64746C6.74744 1.64746 0.299316 8.09558 0.299316 16.0836C0.299316 24.0715 6.74744 30.5196 14.7354 30.5196C22.7234 30.5196 29.1715 24.0715 29.1715 16.0836C29.1715 8.09558 22.7234 1.64746 14.7354 1.64746ZM21.376 22.4836C21.1354 22.9166 20.558 23.061 20.1249 22.7723C16.7565 20.7031 12.4738 20.2219 7.42112 21.3768C6.93992 21.473 6.45872 21.1843 6.36247 20.7031C6.26623 20.2219 6.55496 19.7407 7.03616 19.6445C12.5219 18.3933 17.2377 18.9226 21.0392 21.2324C21.4722 21.473 21.6166 22.0505 21.376 22.4836ZM23.1083 18.5377C22.7715 19.067 22.0978 19.2114 21.5685 18.9226C17.6707 16.5166 11.7519 15.843 7.18052 17.2384C6.60308 17.4309 5.97751 17.0941 5.78503 16.4685C5.59255 15.8911 5.92939 15.2655 6.55496 15.073C11.8001 13.4851 18.2963 14.255 22.7715 16.9978C23.3008 17.3347 23.4452 18.0084 23.1083 18.5377ZM23.3008 14.4475C18.6332 11.7046 10.982 11.4159 6.50683 12.7633C5.78503 12.9557 5.01511 12.5708 4.82262 11.849C4.63014 11.1272 5.01511 10.4054 5.73691 10.1648C10.8377 8.62491 19.3068 8.91363 24.6482 12.0896C25.2738 12.4745 25.5144 13.2926 25.1294 13.9181C24.7444 14.5918 23.9264 14.8324 23.3008 14.4475ZM39.5655 14.9768C37.0632 14.3993 36.6301 13.9663 36.6301 13.1001C36.6301 12.282 37.4001 11.7046 38.555 11.7046C39.6617 11.7046 40.8166 12.1377 41.9715 13.0039C42.0196 13.052 42.0677 13.052 42.1159 13.052C42.164 13.052 42.2121 13.0039 42.2121 13.0039L43.4151 11.2715C43.4632 11.2234 43.4632 11.1272 43.367 11.0309C41.9715 9.92415 40.4316 9.39483 38.6031 9.39483C35.9083 9.39483 34.0316 11.0309 34.0316 13.3407C34.0316 15.7948 35.6677 16.7091 38.4587 17.3828C40.8647 17.9121 41.2497 18.3933 41.2497 19.2114C41.2497 20.1257 40.4316 20.7031 39.1324 20.7031C37.6888 20.7031 36.4858 20.2219 35.1384 19.067C35.1384 18.9708 35.0903 18.9708 35.0422 18.9708C34.9941 18.9708 34.9459 19.0189 34.9459 19.0189L33.5986 20.655C33.5504 20.7031 33.5504 20.8475 33.5986 20.8956C35.1384 22.2911 37.0632 23.0129 39.0843 23.0129C41.9715 23.0129 43.8482 21.4249 43.8482 18.9708C43.8482 16.8535 42.6452 15.6986 39.5655 14.9768ZM50.4407 12.5226C49.1895 12.5226 48.1309 13.0039 47.3129 14.0144V12.8595C47.3129 12.7633 47.2166 12.7151 47.1685 12.7151H44.955C44.8587 12.7151 44.8106 12.8114 44.8106 12.8595V25.5633C44.8106 25.6595 44.9068 25.7076 44.955 25.7076H47.1204C47.2166 25.7076 47.2647 25.6114 47.2647 25.5633V21.5693C48.1309 22.5317 49.1414 23.0129 50.3926 23.0129C52.7504 23.0129 55.1083 21.2324 55.1083 17.7678C55.1083 14.3031 52.7504 12.5226 50.4407 12.5226ZM52.5098 17.7678C52.5098 19.5001 51.4512 20.7512 49.9113 20.7512C48.3715 20.7512 47.2166 19.452 47.2166 17.7678C47.2166 16.0836 48.3715 14.7843 49.9113 14.7843C51.4031 14.7843 52.5098 16.0354 52.5098 17.7678ZM61.1715 12.5226C58.1399 12.5226 55.8301 14.8324 55.8301 17.8159C55.8301 20.7512 58.188 23.0129 61.1715 23.0129C64.2031 23.0129 66.561 20.7031 66.561 17.7678C66.5128 14.8324 64.155 12.5226 61.1715 12.5226ZM61.1715 20.7512C59.5835 20.7512 58.3805 19.452 58.3805 17.7678C58.3805 16.0354 59.5354 14.8324 61.1715 14.8324C62.7595 14.8324 64.0106 16.1317 64.0106 17.8159C63.9625 19.5001 62.8076 20.7512 61.1715 20.7512ZM72.961 12.7151H70.5068V10.2129C70.5068 10.1166 70.4106 10.0685 70.3625 10.0685H68.1489C68.0527 10.0685 68.0046 10.1648 68.0046 10.2129V12.7151H66.8497C66.7535 12.7151 66.7053 12.8114 66.7053 12.8595V14.7843C66.7053 14.8805 66.8016 14.9287 66.8497 14.9287H67.9083V19.9332C67.9083 21.9542 68.9189 22.9648 70.8918 22.9648C71.7098 22.9648 72.3354 22.8204 72.961 22.4354C73.0091 22.3873 73.0572 22.3392 73.0572 22.2911V20.4625C73.0572 20.4144 73.0091 20.3663 72.961 20.3181C72.9128 20.27 72.8647 20.27 72.8166 20.3181C72.3835 20.5106 71.9504 20.655 71.5174 20.655C70.7956 20.655 70.4587 20.3181 70.4587 19.5963V14.9768H72.9128C73.0091 14.9768 73.0572 14.8805 73.0572 14.8324V12.9076C73.1053 12.8114 73.0572 12.7151 72.961 12.7151ZM81.5264 12.7151V12.4264C81.5264 11.5121 81.8632 11.1272 82.6332 11.1272C83.1144 11.1272 83.4512 11.2234 83.8843 11.3678H84.0286C84.0768 11.3196 84.0768 11.2715 84.0768 11.2234V9.34671C84.0768 9.29859 84.0286 9.20235 83.9805 9.20235C83.5474 9.05799 82.97 8.91363 82.1038 8.91363C80.0347 8.91363 78.976 10.0685 78.976 12.282V12.7633H77.9174C77.8211 12.7633 77.773 12.8595 77.773 12.9076V14.8324C77.773 14.9287 77.8692 14.9768 77.9174 14.9768H78.976V22.6279C78.976 22.7242 79.0723 22.7723 79.1204 22.7723H81.3339C81.4301 22.7723 81.4783 22.676 81.4783 22.6279V14.9768H83.5474L86.7234 22.6279C86.3384 23.446 86.0016 23.5903 85.5204 23.5903C85.1354 23.5903 84.7023 23.4941 84.2692 23.2535C84.2211 23.2535 84.173 23.2054 84.1249 23.2535C84.0768 23.2535 84.0286 23.3016 84.0286 23.3497L83.2587 24.9858C83.2106 25.082 83.2587 25.1783 83.3068 25.1783C84.0768 25.6114 84.7986 25.8039 85.7129 25.8039C87.3489 25.8039 88.2632 25.0339 89.0813 22.9648L92.9309 12.9557V12.8114C92.8828 12.7633 92.8347 12.7633 92.7865 12.7633H90.4768C90.4286 12.7633 90.3324 12.8114 90.3324 12.8595L87.9745 19.6445L85.376 12.8595C85.3279 12.8114 85.2798 12.7633 85.2317 12.7633L81.5264 12.7151ZM76.5219 12.7151H74.3083C74.2121 12.7151 74.164 12.8114 74.164 12.8595V22.5798C74.164 22.676 74.2602 22.7242 74.3083 22.7242H76.5219C76.6181 22.7242 76.6662 22.6279 76.6662 22.5798V12.9076C76.7144 12.8114 76.6181 12.7151 76.5219 12.7151ZM75.4632 8.28806C74.5971 8.28806 73.8753 9.00987 73.8753 9.87603C73.8753 10.7422 74.5971 11.464 75.4632 11.464C76.3294 11.464 77.0512 10.7422 77.0512 9.87603C77.0512 9.00987 76.3294 8.28806 75.4632 8.28806ZM95.0001 15.8429C94.1339 15.8429 93.4121 15.1211 93.4121 14.255C93.4121 13.3888 94.0858 12.667 95.0001 12.667C95.9144 12.667 96.588 13.3888 96.588 14.255C96.588 15.1211 95.8662 15.8429 95.0001 15.8429ZM95.0001 12.8595C94.182 12.8595 93.6046 13.4851 93.6046 14.3031C93.6046 15.073 94.2301 15.6986 95.0001 15.6986C95.8181 15.6986 96.3956 15.073 96.3956 14.255C96.3956 13.4851 95.8181 12.8595 95.0001 12.8595ZM95.3369 14.4475L95.77 15.073H95.385L95.0001 14.4956H94.6632V15.073H94.3264V13.4369H95.0482C95.4332 13.4369 95.6738 13.6294 95.6738 13.9663C95.7219 14.2069 95.5775 14.3512 95.3369 14.4475ZM95.0963 13.6775H94.7113V14.2069H95.0963C95.2888 14.2069 95.4332 14.1106 95.4332 13.9663C95.385 13.7738 95.2888 13.6775 95.0963 13.6775Z" fill="#8C98A4"/>
</g>
<defs>
<clipPath id="clip0_16_9394">
<rect width="96.4331" height="32" fill="white" transform="translate(0.299316 0.300049)"/>
</clipPath>
</defs>
</svg>
