<svg width="20" height="20" viewBox="0 0 20 20" fill="none" xmlns="http://www.w3.org/2000/svg">
<g clip-path="url(#clip0_16_9732)">
<path d="M19.0806 2.39867C18.3149 2.93877 17.4671 3.35186 16.5699 3.62203C16.0883 3.06833 15.4483 2.67587 14.7365 2.49775C14.0246 2.31963 13.2752 2.36444 12.5896 2.62611C11.9041 2.88778 11.3154 3.35369 10.9032 3.96082C10.4911 4.56796 10.2753 5.28703 10.2852 6.02078V6.82036C8.88 6.8568 7.48764 6.54516 6.23208 5.91319C4.97652 5.28123 3.89675 4.34856 3.08891 3.19825C3.08891 3.19825 -0.109421 10.3945 7.08683 13.5928C5.44011 14.7106 3.47844 15.2711 1.48975 15.192C8.686 19.1899 17.4814 15.192 17.4814 5.99679C17.4807 5.77407 17.4593 5.5519 17.4174 5.33314C18.2335 4.52835 18.8094 3.51226 19.0806 2.39867Z" stroke="#495057" stroke-linecap="round" stroke-linejoin="round"/>
</g>
<defs>
<clipPath id="clip0_16_9732">
<rect width="19.19" height="19.19" fill="white" transform="translate(0.689941)"/>
</clipPath>
</defs>
</svg>
